<svg xmlns="http://www.w3.org/2000/svg" xmlns:xlink="http://www.w3.org/1999/xlink" xml:space="preserve" version="1.1" style="shape-rendering:geometricPrecision;text-rendering:geometricPrecision;image-rendering:optimizeQuality;" viewBox="0 0 105833.32 132291.65000000002" x="0px" y="0px"  fill-rule="evenodd" clip-rule="evenodd"><defs><style type="text/css">
   
    .fil0 {fill: #fff;fill-rule:nonzero}
   
  </style></defs><g><path class="fil0" d="M12962.36 28988l28093.82 -5507.13c874.11,-171.35 627.82,-21.11 276.5,-697.95 -778.6,-1500.12 -349.77,-3217.25 733.58,-4434.65 2755.61,-3096.65 6053.34,-5598.43 10112.23,-6678.29 2194.16,-583.73 4441.78,-966.38 6718.91,-911.79 4199.28,100.64 8597.16,875.19 12676.25,1853.3 1825.71,437.78 3679.39,1904.01 5216.16,3179.49 607.86,504.54 425.25,558.02 1223.83,399.96l22510.76 -4455.59c3350.92,-663.21 4697.5,5873.63 1401.29,6529.92l-18208.3 3625.45c565.18,525.87 1145.64,1070.25 1740.95,1631.15 7710.48,7264.77 14960.22,12584.43 15768.39,24492.38 675.08,9947.75 402.83,20444.56 3772.81,29935.36 231.11,655.28 -765.22,1006.65 -996.32,351.4 -3413.78,-9614.16 -3147.57,-20150.94 -3830.69,-30216.48 -780.47,-11499.74 -7972.8,-16760.34 -15437.65,-23793.72 -775.13,-730.34 -1537.36,-1443.84 -2296.02,-2145.52l-7089.59 1411.61 -4574.06 896.64c-637.49,124.97 -478.78,77.96 -21.33,590.58 1462.52,1638.87 2679.42,3156.62 3979.56,4778.21 145.15,181.04 291.32,363.36 437.95,546.01 304.91,379.85 289.48,447.48 698.04,86.52 98.78,-87.25 190.4,-187.88 271.38,-297.97 410.54,-560.09 1262.17,64.13 851.62,624.24 -155.53,211.46 -339.45,402.76 -541.36,562.41 -297.99,235.64 -201.75,361.21 -21.14,579.14 1425.04,1719.59 3141.12,3321.51 4945.47,5019.76 4282.59,4030.76 8769.88,8254.2 9738.73,14141.93 111.47,685.2 -930.34,854.66 -1041.8,169.5 -910.48,-5532.96 -5264.75,-9631.21 -9420.39,-13542.49 -1886.29,-1775.38 -3732.57,-3513.09 -5228.51,-5351.17 -553.65,-680.27 -1038.9,-1285.5 -1512.67,-1876.42 -1676.17,-2090.59 -3648.1,-4702.94 -5624.97,-6487.62 -2151.38,-1942.21 -3821.93,-2023.94 -6272.15,-2143.34 -1789.67,-87.22 -3971.09,-193.53 -6996.53,-983.12 -2437.9,-636.25 -5436.46,-742.99 -7394.44,1105.45 -776.53,733.09 -1102.83,1669.44 -1127.81,2647.78 -31.75,1243.44 410.97,2557.4 1043.67,3637.22 789.9,1348.09 1952.05,2550.9 3363.34,3604.58 1567.44,1170.28 3436.47,2151.66 5443.12,2941.1 3090.88,1215.99 5500.8,3050.71 7267.38,5181.13 1916.63,2311.36 3138.6,4945.41 3582.09,7919.49 1288.45,8640.26 -1140.82,15842.64 2079.91,24781.35 233.83,652.58 -758.38,1008.06 -992.18,355.54 -3300.97,-9161.41 -828.05,-16228.68 -2133.65,-24983.93 -109.09,-731.54 -278.87,-1470.29 -510.5,-2205.61 -323.44,-1026.82 -187.33,-901.06 -463.59,-229.17 -115.49,280.9 -269.53,579.29 -520.07,889.58 -434.48,540.38 -1257.17,-121.07 -822.68,-661.46 89.96,-111.42 163.84,-224.91 226.41,-338.41 213.87,-387.92 173.04,-317.66 -120.7,-617.86 -185.69,-189.75 -370.23,-379.23 -554.83,-568.75 -2701.25,-2773.32 -5415.26,-5559.72 -8409.81,-5911.49 -2439.57,-286.59 -5837.32,-1180.74 -7964.31,-366.44 -1061.19,817.32 -2294.46,1681.97 -3607.35,2293.6 -1664.97,775.63 -1642.96,329.34 -2240.77,2367.92 -251.4,857.21 -351.55,1721.07 -290.55,2687.52 184.76,2927.89 3387.49,3728.48 5713.18,2586.01 432.72,-212.56 840.16,-492.74 1195.34,-818.57 997.94,-915.43 1749.6,-2321.18 1931.36,-4263.05 26.25,-289.96 282.61,-503.74 572.57,-477.49 289.96,26.25 503.74,282.61 477.49,572.57 -167.27,1787.1 -764.47,3188.8 -1598.01,4229.16 -416.49,519.87 -525.73,446.32 279.31,440.59 422.51,-3.02 854.94,-25.68 1281.1,-67.64 876.86,-86.34 1916.94,-271.99 2709.3,-630.13 633.54,-285.49 1067.57,677.78 434.08,963.24 -462.97,209.27 -454.37,90.12 -39.81,397.32 1994.72,1478.18 3034.22,3972.68 5442.75,5309.56 395.32,219.42 246.61,176.29 445.77,-148.36 89.45,-145.84 207.85,-285.93 369.37,-421.36 532.25,-445.35 1210.24,364.94 678,810.28 -209.14,175.36 -260.92,471.34 -321.47,817.52 -72.89,416.71 -154.65,884.11 -460.77,1422.6 -342.6,603.61 -1260.37,82.7 -917.78,-520.9 74.04,-130.24 130.26,-260.6 174.54,-389.33 136.79,-397.6 142.04,-327.06 -187.47,-491.76 -2885.16,-1441.96 -4474.68,-5080.93 -6785.97,-6071.22 -399.72,-171.24 -390.99,-133.29 -801.58,-74.2 -1022.61,147.18 -2132.5,197.52 -3183.61,110.39 -816.46,-67.65 -511.41,-106.26 -1231.49,247.48 -3015.31,1481.24 -6996.75,235.97 -7230.4,-3466.57 -64.28,-1018.63 31.15,-1993.33 310.18,-2974.06 194.5,-683.78 338.24,-544.66 -332.75,-855.1 -740.52,-342.59 -1606.36,-697.25 -2392.73,-888.01 -618.33,-150.01 -1207.27,-192.45 -1750.58,-141.34 -2678.2,251.88 -3848.49,2570.23 -3066.65,5061.96 646.05,2058.94 3125.46,3724.19 5646.1,5121.94 894.23,495.84 2238.2,1035.13 3191.66,638.49 641.68,-266.45 1046.79,709.2 405.14,975.64 -406.2,168.98 -437.33,61.13 55.69,332.98 2025.44,1116.85 3935.22,2455.89 5618.95,4045.47 409.87,386.94 385.03,560.51 503.95,63.03 160.41,-674.28 1185.68,-430.4 1025.26,243.92 -59.77,250.06 -124.09,524.4 -94.26,798.17 56.13,515.07 465.9,908.75 774.87,1297.79 491.37,618.65 927.31,1235.39 1317.08,1844.44 433.16,676.86 277.86,702.67 511.39,113.81 107.3,-270.55 413.64,-402.89 684.19,-295.59 270.55,107.3 402.89,413.64 295.59,684.19 -134.82,339.98 -191.59,783.94 -155.71,1267.62 20.8,280.49 73.78,571.27 161.84,859.88 650.26,2131.08 1557.81,4257.84 2238.44,6485.55 2408.36,7882.57 5537.81,18125.26 17676.87,23922.27 628.06,299.06 173.35,1254.07 -454.76,954.98 -12555.47,-5995.87 -15762.66,-16492.97 -18230.83,-24571.33 -766.13,-2507.57 -1459.61,-4777.27 -2335.7,-6569.59 -887.8,-1816.28 -1993.82,-3492.18 -3340.39,-4997.18 -1968.17,-2199.63 -4058.77,-3696.43 -6424.25,-5050.35 -1272.96,-728.59 -2589.29,-1378.01 -3872.93,-2087.5 -2719.92,-1503.44 -5443.66,-3331.97 -6206.91,-5764.43 -950.92,-3030.58 523.58,-5963.27 3744.13,-6401.09 886.74,-120.52 741.16,129.03 390.56,-564.11 -471.27,-931.6 -411.13,-1992.57 -141.77,-2976.25 437.14,-1596.38 1516.7,-3293.15 2553.02,-4648.91 592.78,-775.48 664.39,-667.74 -336.61,-471.52l-23496.65 4605.96c-668.2,130.99 -962.34,162.43 -1633.22,210.25l-9553.14 557.66c-2207.51,251.01 -3423.53,-2317.8 -863.9,-3304.79l9317.05 -3592.91c661.92,-255.25 770.8,-283.91 1408.55,-408.93zm80338.36 -14745.1c644.4,1219.81 1031.71,3083 1014.79,4459.64l843.46 -167.94c60.62,-1299.89 -268.73,-3349.52 -960.19,-4469.45l-898.06 177.75zm-46.85 4671.02c66.6,-1214.07 -352.47,-3462.05 -1049.24,-4454.07l-30162.19 5970.03c-1687.63,334.04 -1737.53,283.05 20.8,368.75 2727.12,132.89 4572.11,223.18 7013.91,2485.62 432.86,401.06 261.05,373.61 844.96,259.15l5224.58 -1024.16 18107.18 -3605.32zm1490.15 -4956.7c661.53,1211.76 986.11,3104.24 946.78,4471.48l6043.82 -1203.38c1895.73,-377.47 961.7,-4842.1 -982.47,-4457.29l-6008.13 1189.19zm-30277.23 29157.09c-465.01,-847.82 -1020.56,-1671.68 -1668.84,-2453.48 -1659.37,-2001.13 -3926.36,-3725.82 -6837.44,-4871.07 -2093.81,-823.73 -4047.6,-1850.41 -5691.16,-3077.52 -1295.02,-966.87 -2400.87,-2061.09 -3236.46,-3282.37 -226.69,-331.32 -283.71,-266.59 -681.2,-188.67l-5353.86 1049.5c-785.86,154.04 -653.03,63.39 -1177.34,676.94 -1166.33,1364.82 -2719.37,3462.94 -3236.25,5350.53 -275.63,1006.58 -291.21,2071.86 533.61,2828.48 1577.55,1447.08 4059.51,1065.61 5836.78,237.64 1143.63,-532.78 2229.15,-1273.4 3183.31,-1995.64 837.12,-633.6 2667.39,-2545.59 2964.26,-2648.64 517.29,-178.15 924.95,456.75 559.45,854.89 -177.1,192.92 -445.29,448.29 -698.44,687.43 -515.65,487.14 -435.94,344.12 218.69,355.8 1626.79,29.07 4646.23,825.88 5874.8,574.17 279.87,-57.33 555.34,-176.05 817.01,-399.76 472.02,-403.88 1072.01,197.94 812.84,651.73 -169.69,297.21 -392.07,127.34 192.23,352.15 2614.93,1006.09 4942.11,3395.37 7260.34,5775.44 884.19,907.76 744.83,283 327.67,-477.55zm-8166.69 -23256.47c167.03,-246.65 285.37,-539.63 374.16,-822.33 206.63,-663.41 1215.36,-349.24 1008.72,314.2 -58.42,186.03 -139.82,410.09 -249.43,639.88 -189.62,397.52 -163.75,347.19 363.62,242.8l17326.09 -3465.19c936.14,-174.52 999.45,-193.16 452.02,-613.48 -1359.2,-1043.6 -2846.05,-2181.39 -4245.55,-2516.97 -3993.37,-957.55 -8346.58,-1725.87 -12457.13,-1824.36 -2166.57,-51.92 -4337.48,323.24 -6425.39,878.71 -3851.61,1024.7 -6978.03,3423.24 -9591.33,6359.97 -898.05,1009.13 -1233.26,2461.34 -345.82,3596.75 386.84,494.93 421.18,459.74 1044.18,337.6l1713.13 -335.82c910.37,-178.46 545.62,-87.64 1058.68,-793.49 164.97,-226.97 355.37,-444.29 573.16,-649.89 2497.4,-2357.68 5851.27,-1967.19 8892.6,-1229.13 315.64,76.61 323.65,153.46 508.29,-119.25zm9800.41 4498.6c57.09,-342.57 577.99,-255.79 520.9,86.82 -119.03,715.06 -408.43,1458.33 -991.55,1920.59 -271.55,215.88 -600.2,-197.52 -328.66,-413.4 472.59,-374.64 703.3,-1017.25 799.31,-1594.01zm-2196.2 1699.01c-301.82,169.93 -560.16,-288.97 -258.38,-458.88 579.14,-326.58 1235.38,-1185.69 1302.78,-1853.06 33.99,-345.3 559.01,-293.62 525.02,51.68 -84.81,839.48 -840.99,1849.49 -1569.42,2260.26zm-14103.04 -467.26c-295.99,-181.93 -19.02,-632.56 276.98,-450.62 1429.84,879.08 3433.56,1591.05 5116.66,1261.39 1412.52,-276.66 2251.79,-1229.98 2662.65,-2550.53 103.32,-331.71 607.68,-174.61 504.36,157.1 -470.22,1511.26 -1455.46,2596.84 -3065.73,2912.25 -1818.71,356.22 -3948.29,-378.69 -5494.92,-1329.59zm-4858.23 -1797.64l-31356.88 6146.78c-495.86,97.2 -559.48,24.07 -475.92,612.87 165.71,1167.35 1355.32,1838.53 1318.93,3400.48 -14.03,602.59 -163.97,502.95 565.07,360.04l30970.87 -6071.11c412.05,-80.77 349.88,-8.09 182.21,-386.32 -496.93,-1121.04 -793.22,-2386.47 -686.94,-3607.79 59.31,-681.51 232.55,-601.95 -517.34,-454.95zm-41781.29 10514.6c86.11,195.59 136.32,351.84 133.53,560.35 -6.31,471.08 -147.09,409.28 563.84,358.61l8848.75 -550.5c581.67,-41.45 615.56,34.28 640.45,-649.69 47.4,-1302.03 -1062.1,-1927.38 -1286.76,-3220.3 -96.22,-553.73 81.96,-503.51 -569.3,-252.36l-7925.34 3056.23c-796.85,307.29 -645.63,151.51 -405.17,697.66z"/></g></svg>