<svg xmlns="http://www.w3.org/2000/svg"  fill="#fff" xmlns:xlink="http://www.w3.org/1999/xlink" version="1.1" x="0px" y="0px" viewBox="0 0 100 125" enable-background="new 0 0 100 100" xml:space="preserve"><path d="M50.918,72.456c-2.328-2.402-4.735-4.886-6.067-8.567c-0.574-1.586,0.105-2.853,1.262-4.788  c1.382-2.312,3.103-5.19,1.536-9.519c-0.621-1.714-3.623-6.605-9.091-6.605c-2.919,0-6.005,1.431-9.171,4.252  c-9.75,8.687-8.034,16.379-5.222,24.147c2.952,8.154,11.197,19.638,20.287,19.638c1.229,0,2.442-0.214,3.607-0.635  c4.417-1.599,6.993-3.64,7.877-6.241c0.756-2.227,0.016-4.273-0.427-5.495C54.67,76.328,52.848,74.447,50.918,72.456z   M54.041,83.494c-0.666,1.961-2.908,3.645-6.664,5.004c-0.946,0.342-1.931,0.516-2.927,0.516c-7.273,0-15.217-9.509-18.406-18.318  c-2.667-7.368-4.157-14.107,4.671-21.973c2.79-2.485,5.428-3.745,7.841-3.745c4.398,0,6.806,4.169,7.21,5.286  c1.244,3.436-0.026,5.562-1.372,7.812c-1.157,1.935-2.353,3.935-1.426,6.495c1.479,4.084,4.152,6.843,6.512,9.278  c1.853,1.912,3.454,3.564,4.146,5.476C54.026,80.424,54.572,81.932,54.041,83.494z"/><path d="M37.434,29.002c-0.746,0-1.483,0.13-2.19,0.386c-1.617,0.585-2.909,1.765-3.639,3.322c-0.729,1.557-0.809,3.305-0.224,4.922  c0.92,2.541,3.353,4.248,6.054,4.248c0.746,0,1.483-0.13,2.19-0.386c1.617-0.585,2.909-1.765,3.639-3.322  c0.729-1.557,0.809-3.305,0.224-4.922C42.567,30.709,40.135,29.002,37.434,29.002z M41.452,37.324  c-0.502,1.074-1.393,1.887-2.508,2.29c-0.488,0.177-0.997,0.267-1.51,0.267c-1.862,0-3.539-1.177-4.173-2.929  c-0.403-1.115-0.349-2.319,0.154-3.393c0.502-1.074,1.393-1.887,2.508-2.29c0.488-0.177,0.997-0.267,1.51-0.267  c1.862,0,3.539,1.177,4.173,2.929C42.01,35.046,41.955,36.25,41.452,37.324z"/><path d="M27.04,37.542c-1.844,0.667-2.733,2.898-1.982,4.972c0.594,1.64,2.045,2.742,3.611,2.742c0.375,0,0.744-0.064,1.095-0.191  c1.844-0.667,2.733-2.898,1.982-4.972c-0.594-1.64-2.045-2.742-3.611-2.742C27.759,37.351,27.391,37.415,27.04,37.542z   M29.864,40.773c0.375,1.037,0.024,2.118-0.782,2.41c-0.796,0.287-1.78-0.346-2.144-1.351c-0.375-1.037-0.024-2.118,0.782-2.41  c0.132-0.048,0.271-0.072,0.414-0.072C28.85,39.351,29.561,39.936,29.864,40.773z"/><path d="M22.183,43.845c-1.651,0.598-2.45,2.587-1.781,4.435c0.528,1.459,1.823,2.439,3.222,2.439c0.338,0,0.669-0.058,0.985-0.172  c0.817-0.296,1.47-0.959,1.793-1.821c0.307-0.818,0.303-1.746-0.011-2.613c-0.528-1.459-1.823-2.44-3.222-2.44  C22.83,43.673,22.499,43.731,22.183,43.845z M24.509,46.793c0.15,0.415,0.157,0.863,0.02,1.231  c-0.069,0.184-0.238,0.511-0.601,0.642c-0.612,0.22-1.362-0.283-1.646-1.067c-0.289-0.797-0.022-1.655,0.581-1.874  c0.097-0.035,0.2-0.053,0.305-0.053C23.719,45.673,24.271,46.134,24.509,46.793z"/><path d="M22.496,52.981c-0.114-0.813-0.532-1.578-1.18-2.153c-1.341-1.192-3.434-1.181-4.502,0.021  c-0.546,0.613-0.79,1.459-0.67,2.319c0.113,0.813,0.532,1.578,1.18,2.154c0.667,0.591,1.499,0.917,2.342,0.917  c0.854,0,1.622-0.333,2.159-0.938C22.372,54.688,22.616,53.842,22.496,52.981z M20.331,53.972c-0.196,0.221-0.47,0.267-0.665,0.267  c-0.349,0-0.719-0.15-1.014-0.413c-0.288-0.256-0.48-0.596-0.527-0.934c-0.023-0.164-0.029-0.475,0.185-0.715  c0.196-0.221,0.469-0.267,0.664-0.267c0.349,0,0.719,0.151,1.014,0.414c0.288,0.256,0.48,0.596,0.527,0.934  C20.538,53.421,20.544,53.732,20.331,53.972z"/><path d="M19.703,57.561c-0.554-0.4-1.221-0.62-1.875-0.62c-0.884,0-1.669,0.387-2.154,1.06c-0.875,1.213-0.492,2.991,0.855,3.962  c0.555,0.4,1.22,0.62,1.875,0.62c0.884,0,1.669-0.387,2.154-1.06c0.436-0.604,0.578-1.388,0.392-2.15  C20.773,58.658,20.331,58.014,19.703,57.561z M18.935,60.354c-0.144,0.2-0.395,0.229-0.532,0.229c-0.238,0-0.489-0.086-0.705-0.242  c-0.437-0.315-0.625-0.862-0.402-1.171c0.144-0.199,0.395-0.229,0.532-0.229c0.238,0,0.489,0.086,0.706,0.242  c0.24,0.173,0.412,0.416,0.473,0.666C19.034,59.962,19.062,60.178,18.935,60.354z"/><path d="M66.548,22.798c-5.687-1.753-10.101-1.061-12.883,1.958c-2.279,2.473-2.892,6.004-2.748,7.774  c0.375,4.588,3.135,6.49,5.354,8.019c1.856,1.279,3.001,2.148,3.138,3.83c0.318,3.901-0.838,7.161-1.957,10.314  c-0.927,2.613-1.803,5.081-1.603,7.535c0.188,2.294,0.626,7.668,9.511,7.668c0,0,0,0,0,0c0.673,0,1.395-0.031,2.144-0.092  c10.405-0.85,14.718-16.352,13.831-27.216C80.664,34.355,79.027,26.645,66.548,22.798z M67.342,67.812  c-0.695,0.057-1.361,0.085-1.98,0.085h0c-7.042,0-7.328-3.509-7.518-5.832c-0.165-2.026,0.604-4.193,1.494-6.703  c1.134-3.195,2.418-6.817,2.065-11.146c-0.221-2.713-2.141-4.035-3.997-5.314c-2.159-1.487-4.198-2.892-4.496-6.534  c-0.075-0.916,0.174-4.031,2.225-6.256c1.386-1.503,3.325-2.266,5.763-2.266c1.5,0,3.203,0.29,5.061,0.863  c11.299,3.483,12.747,10.232,13.384,18.042C80.141,52.528,76.327,67.078,67.342,67.812z"/><path d="M53.804,9.007c-1.713,0.14-3.27,0.939-4.383,2.25c-1.113,1.311-1.649,2.977-1.509,4.69c0.271,3.316,3.086,5.914,6.41,5.915  c0.176,0,0.352-0.007,0.53-0.022c3.538-0.289,6.181-3.402,5.892-6.94C60.458,11.409,57.356,8.707,53.804,9.007z M54.689,19.846  c-2.437,0.193-4.587-1.655-4.784-4.062c-0.097-1.181,0.273-2.329,1.04-3.232c0.767-0.904,1.84-1.455,3.021-1.551  c0.123-0.01,0.245-0.015,0.367-0.015c2.29,0,4.23,1.791,4.417,4.077C58.95,17.501,57.128,19.647,54.689,19.846z"/><path d="M62.195,14.448c-0.574,0.796-0.843,1.806-0.759,2.841c0.169,2.079,1.754,3.708,3.608,3.708c0.086,0,0.173-0.003,0.261-0.011  c0.978-0.08,1.851-0.589,2.46-1.435c0.574-0.796,0.843-1.806,0.759-2.841c-0.177-2.176-1.901-3.859-3.869-3.697  C63.678,13.092,62.804,13.602,62.195,14.448z M66.531,16.873c0.046,0.562-0.092,1.098-0.389,1.509c-0.261,0.363-0.616,0.58-1,0.611  l-0.098,0.004c-0.82,0-1.53-0.822-1.615-1.871c-0.046-0.562,0.092-1.098,0.389-1.509c0.261-0.363,0.616-0.58,1.098-0.615  C65.736,15.002,66.446,15.824,66.531,16.873z"/><path d="M71.692,16.726c-0.866,0.07-1.67,0.54-2.208,1.287c-0.51,0.708-0.75,1.605-0.675,2.524c0.15,1.852,1.569,3.302,3.229,3.302  c0.078,0,0.156-0.003,0.235-0.01c0.865-0.07,1.67-0.539,2.208-1.286c0.511-0.709,0.75-1.605,0.675-2.524  C74.999,18.08,73.447,16.583,71.692,16.726z M72.858,21.375c-0.114,0.159-0.364,0.431-0.748,0.462l-0.072,0.003  c-0.615,0-1.169-0.657-1.235-1.465c-0.036-0.439,0.075-0.875,0.305-1.193c0.115-0.159,0.364-0.431,0.82-0.465  c0.615,0,1.17,0.658,1.236,1.466C73.199,20.621,73.088,21.056,72.858,21.375z"/><path d="M76.78,26.996c0.35,0.154,0.724,0.233,1.109,0.233c0,0,0,0,0,0c1.258,0,2.433-0.819,2.994-2.086  c0.35-0.792,0.413-1.662,0.177-2.448c-0.249-0.833-0.822-1.5-1.572-1.83c-0.351-0.155-0.725-0.234-1.112-0.234  c-1.259,0-2.433,0.819-2.993,2.086c-0.35,0.792-0.413,1.662-0.177,2.448C75.455,25.998,76.028,26.665,76.78,26.996z M77.213,23.524  c0.232-0.526,0.71-0.894,1.163-0.894c0.107,0,0.208,0.021,0.304,0.063c0.293,0.129,0.417,0.415,0.464,0.573  c0.098,0.327,0.064,0.716-0.091,1.068c-0.288,0.65-0.973,1.048-1.467,0.831c-0.293-0.129-0.417-0.415-0.464-0.573  C77.024,24.266,77.058,23.876,77.213,23.524z"/><path d="M83.5,26.895c-0.375-0.214-0.805-0.327-1.244-0.327c-1.045,0-2.043,0.614-2.605,1.602c-0.383,0.673-0.518,1.443-0.38,2.167  c0.147,0.771,0.603,1.424,1.249,1.792c0.375,0.214,0.805,0.327,1.243,0.327c0,0,0,0,0,0c1.044,0,2.042-0.613,2.604-1.601  C85.188,29.41,84.799,27.634,83.5,26.895z M82.629,29.864c-0.232,0.408-0.602,0.59-0.866,0.59c-0.093,0-0.179-0.021-0.254-0.065  c-0.188-0.106-0.252-0.314-0.274-0.429c-0.048-0.253,0.008-0.545,0.154-0.802c0.232-0.408,0.603-0.591,0.867-0.591  c0.093,0,0.178,0.022,0.254,0.065C82.845,28.824,82.9,29.388,82.629,29.864z"/></svg>