<svg fill="#fff" xmlns="http://www.w3.org/2000/svg" xmlns:xlink="http://www.w3.org/1999/xlink" version="1.1" x="0px" y="0px" viewBox="0 0 100 125" enable-background="new 0 0 100 100" xml:space="preserve"><path d="M99.2861176,72.677063c-0.1269531-4.1289063-3.2919922-7.5039063-7.5263672-8.0253906l-2.8930054-0.3564453  c-0.1243286-0.1268311-0.2617188-0.2414551-0.4243774-0.3242188c0,0-0.0009766,0-0.0009766-0.0009766l-3.3779297-1.7099609  c-0.4970703-0.2519531-1.0830078-0.2392578-1.5683594,0.0380859l-0.3800049,0.2165527l-0.1454468-3.5529175  c3.6699829-2.4907227,6.2283936-6.5775757,6.5010376-11.0388184c0.2178955-0.0628662,0.4364014-0.1343384,0.6552734-0.2415161  c1.2197266-0.5981445,2.3310547-1.8647461,2.7646484-3.1503906c0.640686-1.899353-0.2442627-3.9491577-1.9810791-4.8427124  c1.0090332-7.1621704,0.1780396-12.6242657-2.5023193-16.2139263c-0.4297485-0.5753174-0.8789673-1.0588379-1.3276978-1.4707642  c0.4681396-0.786499,0.5305786-1.7290039,0.1187134-2.5336304c-0.3271484-0.6386719-1.6542969-2.5957031-5.0712891-1.1098633  c-0.0009766,0-0.0029297,0-0.0048828,0c-0.3408203,0-1.3486328-0.2788086-2.1660156-0.5048828  c-4.0274048-1.1149902-12.2736816-3.3969116-16.4122314,3.6853638c-0.6234131,0.4957275-1.2632446,1.1280518-1.8651123,1.9337769  c-2.6803589,3.5896606-3.5113525,9.0518169-2.5023193,16.2138653c-1.736145,0.8931885-2.6217651,2.9425049-1.9810791,4.8417969  c0.4326172,1.2856445,1.5429688,2.5517578,2.7626953,3.1503906c0.2197266,0.1078491,0.4393921,0.1799927,0.6583862,0.2431641  c0.2964478,4.4762573,2.8486328,8.5502319,6.500061,11.0343628l-0.1456299,3.5570679l-0.3790283-0.2159424  c-0.4853516-0.2763672-1.0693359-0.2929688-1.5703125-0.0390625l-3.3769531,1.7109375  c-0.163269,0.0826416-0.3010864,0.1973267-0.4257202,0.3242798l-2.8926392,0.3563843  c-4.234375,0.5214844-7.3994141,3.8964844-7.5258789,8.0253906l-0.2958984,9.6914063  c-0.0170898,0.5517578,0.4165039,1.0126953,0.9692383,1.0302734c0.0097656,0,0.0205078,0,0.03125,0  c0.5380859,0,0.9824219-0.4277344,0.9990234-0.9697266l0.0477905-1.5655518l0.2481079-8.1258545  c0.0957031-3.1347656,2.5224609-5.7011719,5.7705078-6.1015625l2.4315796-0.2995605  c0.0821533,0.1289063,0.1774902,0.2501221,0.2949829,0.354248l0.5804443,0.5125122l6.3619385,5.6173706  c0.3056641,0.2714844,0.6904297,0.4169922,1.0947266,0.4169922c0.0380859,0,0.0771484-0.0009766,0.1152344-0.0039063  c0.4462891-0.0302734,0.8515625-0.2333984,1.1425781-0.5722656l2.4681396-2.8675537l1.1148682,4.0755615  c0.1074219,0.3916016,0.4628906,0.6630859,0.8681641,0.6630859s0.7607422-0.2714844,0.8681641-0.6630859l1.1148071-4.0753784  l2.4682007,2.8683472c0.2919922,0.3388672,0.6982422,0.5419922,1.1445313,0.5712891  c0.0371094,0.0029297,0.0751953,0.0039063,0.1132813,0.0039063c0.4042969,0,0.7890625-0.1455078,1.09375-0.4150391  l6.362793-5.6192017l0.581543-0.5136108c0.1171265-0.1038208,0.2123413-0.2246704,0.2943115-0.3532715l2.4312744,0.2995605  c3.2480469,0.4003906,5.6748047,2.9667969,5.7705078,6.1015625l0.2481079,8.1261597l0.0477905,1.5652466  c0.0166016,0.5419922,0.4609375,0.9697266,0.9990234,0.9697266c0.0107422,0,0.0214844,0,0.03125,0  c0.5527344-0.0175781,0.9863281-0.4785156,0.9697266-1.0302734L99.2861176,72.677063z M89.9512787,41.4371338  c0.9042358,0.4353027,1.3723145,1.4835815,1.0447998,2.4542847c-0.2202759,0.6514893-0.7641602,1.3214722-1.3673096,1.7470093  L89.9512787,41.4371338z M59.0898285,43.892395v-0.0009766c-0.3276978-0.9713745,0.1412354-2.0204468,1.0466919-2.4552002  l0.3235474,4.2046509C59.8551483,45.2155762,59.3098602,44.5447388,59.0898285,43.892395z M86.6308441,24.4461079  c1.1804199,1.4824219,1.9629517,3.4586792,2.3685913,5.8383789c0.003479,0.0203247,0.0067139,0.0410156,0.0100708,0.0614014  c0.3181763,1.9034405,0.4021606,4.057127,0.2180176,6.4630108c-0.2438354-0.4978638-0.5148315-1.0810547-0.7953491-1.7019043  c-0.5991211-1.3261108-1.2611084-2.9208374-1.9310303-4.7611065c-0.6550293-1.7993164-1.3093262-3.8214111-1.907959-6.0516968  c0.3610229-0.2667847,0.7218628-0.5484619,1.0822754-0.8530884C85.9946136,23.7300434,86.3160248,24.0508442,86.6308441,24.4461079z   M66.3853607,21.0524311c0.4381104-0.4735718,0.9112549-0.8581543,1.4075928-1.1791992  c3.5657349-2.3064575,8.4220581-0.9790039,11.6298828-0.0906982c1.0395508,0.2877197,1.7984619,0.4946899,2.3959961,0.5541992  c0.4145508,0.0413208,0.7537842,0.0136719,1.0454102-0.1157227c0.2572021-0.1146851,0.4912109-0.1976929,0.7130127-0.2640991  c0.9285278-0.2781372,1.5507813-0.1411133,1.8416748,0.4252319c0.0653687,0.128479,0.060791,0.2695313,0.0217896,0.404541  c-0.0460815,0.1595459-0.1422729,0.3104858-0.2581177,0.4191895c-0.1324463,0.1241455-0.2651367,0.2363892-0.3977051,0.3544922  c-0.5326538,0.4745483-1.0658569,0.9017334-1.5987549,1.2839966c-0.2944946,0.2113037-0.5887451,0.4099731-0.8826294,0.5948486  c-5.736145,3.6088867-11.2920532,2.3115845-14.7207031,0.7717285c-0.3266602-0.1467285-0.633606-0.2948608-0.9199219-0.4418335  c-0.3314819-0.1700439-0.6361694-0.3373413-0.9085693-0.4960938c-0.2410278-0.1403809-0.4594116-0.2741699-0.6503906-0.3964233  c-0.0038452-0.0024414-0.0083618-0.005188-0.012146-0.0076294C65.4766693,22.1561298,65.9139862,21.5620136,66.3853607,21.0524311z   M60.8583832,36.8084106c-0.1841431-2.4055786-0.1001587-4.5591431,0.2179565-6.4625225  c0.003418-0.0203857,0.0066528-0.0410767,0.0101318-0.0614014c0.4056396-2.3798218,1.1881104-4.3562012,2.3685913-5.8383789  c0.0513306-0.0645142,0.104126-0.1133423,0.1558838-0.1748047c0.0395508,0.0321045,0.0754395,0.0673828,0.1185303,0.0961914  c0.3099365,0.2067871,0.8210449,0.5280151,1.4959106,0.8907471c-0.5245972,1.852478-1.0822144,3.5523071-1.6411133,5.0876465  c-0.6695557,1.8394146-1.3310547,3.4332867-1.9298706,4.7589703C61.373642,35.7263794,61.1024628,36.3101196,60.8583832,36.8084106z   M62.6128387,47.8373413c-0.0211792-0.2833862-0.0463257-0.5661011-0.0464478-0.8531494l-0.0182495-0.2376709l-0.098999-1.289917  l-0.2950439-3.8425903l-0.0897217-1.1691284l-0.0835571-1.088501l-0.0217896-0.2833862  c0.8914185-1.6802979,2.3372192-4.6756592,3.7615967-8.7271099c0.4557495-1.2965088,0.9066162-2.7053223,1.3387451-4.2119141  c1.9517822,0.8252563,4.5484009,1.5914307,7.4796753,1.5914307c2.5807495,0,5.4178467-0.5978394,8.2926025-2.2679443  c0.4890137,1.7672729,1.0090942,3.3973999,1.5332642,4.8884277c1.4249878,4.0535259,2.8718872,7.050108,3.7633057,8.7299175  l-0.0214844,0.2799683l-0.083374,1.0883179l-0.0894775,1.168335l-0.2947388,3.8479614l-0.0986328,1.2877808l-0.0239258,0.3126831  c0,0.2612915-0.0245361,0.5186157-0.0424194,0.7770386c-0.2449951,3.5355225-2.128479,6.7694702-4.8743286,8.9260254  c-0.5303955,0.4165039-1.0869751,0.7996216-1.675354,1.1296387c-1.7752686,0.9956665-3.7872925,1.5735474-5.8815308,1.5735474  c-2.0941772,0-4.1062012-0.5778198-5.8814697-1.5758057c-0.5890503-0.3311768-1.1461792-0.7157593-1.677124-1.1342163  C64.7562714,54.6068726,62.8782806,51.3839722,62.6128387,47.8373413z M69.3036957,71.0930786l-6.2896118-5.5549316  l-0.0140991-0.0124512l0.0345459-0.0175171l2.7261963-1.3809204l6.3994141,3.6464844L69.3036957,71.0930786z M76.5732269,66.2424927  c-0.4306641,0.2460938-0.7265625,0.6669922-0.8115234,1.15625c-0.0145264,0.0838623-0.0137329,0.1675415-0.0154419,0.2511597  l-0.0025024,0.0092163l-0.7008057,2.5618896l-0.7008057-2.5618896l-0.0025024-0.0092163  c-0.001709-0.0836182-0.0009155-0.1672974-0.0154419-0.2511597c-0.0849609-0.4892578-0.3808594-0.9101563-0.8115234-1.15625  l-4.5860596-2.6130371l0.1456909-3.5601807c1.8435669,0.8835449,3.8684692,1.3978271,5.9706421,1.3978271  c2.1022339,0,4.1271973-0.5142822,5.9707031-1.3963013l0.1456299,3.5583496L76.5732269,66.2424927z M87.071701,65.538269  l-6.2894897,5.5548096l-2.8564453-3.3193359l6.3994141-3.6464844l2.7259521,1.3807983l0.03479,0.0176392L87.071701,65.538269z   M70.113266,30.5457172c0-0.0708618,0.0230713-0.1343994,0.0404053-0.1998291  c0.0905762-0.3425293,0.3887939-0.5999756,0.7593994-0.5999756c0.3671875,0,0.5175781-0.0581055,0.7441406-0.1459961  c0.2929688-0.1132813,0.65625-0.2539063,1.3222656-0.2539063s1.0292969,0.140625,1.3222656,0.253418  c0.2265625,0.0883789,0.3769531,0.1464844,0.7451172,0.1464844c0.3662109,0,0.515625-0.0581055,0.7421875-0.1459961  c0.2919922-0.1132813,0.6552734-0.2539063,1.3203125-0.2539063c0.6660156,0,1.0292969,0.140625,1.3212891,0.2539063  c0.2265625,0.0878906,0.3759766,0.1459961,0.7421875,0.1459961c0.3706055,0,0.6688843,0.2574463,0.7594604,0.5999756  c0.017334,0.0654297,0.0403442,0.1289673,0.0403442,0.1998291c0,0.4418945-0.3583984,0.7998047-0.7998047,0.7998047  c-0.6650391,0-1.0283203-0.140625-1.3203125-0.2539063c-0.2265625-0.0878906-0.3769531-0.1459961-0.7431641-0.1459961  s-0.515625,0.0581055-0.7421875,0.1459961c-0.2919922,0.1132813-0.6552734,0.2539063-1.3203125,0.2539063  c-0.6669922,0-1.0302734-0.140625-1.3232422-0.2539063c-0.2265625-0.0878906-0.3769531-0.1459961-0.7441406-0.1459961  s-0.5175781,0.0581055-0.7441406,0.1459961c-0.2929688,0.1132813-0.65625,0.2539063-1.3222656,0.2539063  C70.4716644,31.3455219,70.113266,30.9876118,70.113266,30.5457172z M68.8867035,33.3943481  c0-0.4418945,0.3583984-0.7998047,0.7998047-0.7998047c0.5,0,0.7158203-0.0966797,1.0136719-0.2304688  c0.3681641-0.1645508,0.8261719-0.369627,1.6669922-0.369627s1.2988281,0.2050762,1.6669922,0.369627  c0.2978516,0.1337891,0.5136719,0.2304688,1.0136719,0.2304688c0.4980469,0,0.7128906-0.0966797,1.0107422-0.2299805  c0.3671875-0.1650391,0.8251953-0.3701153,1.6650391-0.3701153s1.2978516,0.2050762,1.6650391,0.3701153  c0.2978516,0.1333008,0.5126953,0.2299805,1.0107422,0.2299805c0.4414063,0,0.7998047,0.3579102,0.7998047,0.7998047  s-0.3583984,0.7998047-0.7998047,0.7998047c-0.8398438,0-1.2978516-0.2050781-1.6650391-0.3701172  c-0.2978516-0.1333008-0.5126953-0.2299805-1.0107422-0.2299805s-0.7128906,0.0966797-1.0107422,0.2299805  c-0.3671875,0.1650391-0.8251953,0.3701172-1.6650391,0.3701172c-0.8417969,0-1.2998047-0.2050781-1.6679688-0.3696289  c-0.2978516-0.1337891-0.5136719-0.2304688-1.0126953-0.2304688s-0.7148438,0.0966797-1.0126953,0.2304688  c-0.3681641,0.1645508-0.8261719,0.3696289-1.6679688,0.3696289C69.2451019,34.1941528,68.8867035,33.8362427,68.8867035,33.3943481  z M71.0400238,38.7796021h-4.8164063c-0.5527344,0-1-0.4477539-1-1s0.4472656-1,1-1h4.8164063c0.5527344,0,1,0.4477539,1,1  S71.5927582,38.7796021,71.0400238,38.7796021z M79.0458832,36.7796021h4.8154297c0.5527344,0,1,0.4477539,1,1s-0.4472656,1-1,1  h-4.8154297c-0.5527344,0-1-0.4477539-1-1S78.4931488,36.7796021,79.0458832,36.7796021z M68.6320038,42.7505493  c0.1187134,0,0.2330322-0.0161743,0.3440552-0.0415039c-0.5637207,0.5187378-0.9233398,1.2554932-0.9233398,2.079834  c0,1.5639648,1.2734375,2.8364258,2.8378906,2.8364258c0.7339478,0,1.3972778-0.2872925,1.9014893-0.7461548l-0.0880127,0.303772  c-0.2412109,0.6723633-0.1523438,1.4033203,0.2421875,2.0043945c0.2141113,0.3261719,0.5084839,0.5921631,0.8502197,0.7833862  c-0.0387573,0.0625-0.0761719,0.1262817-0.1051025,0.1965942c-0.0048828,0.0126953-0.5751953,1.2089844-2.984375,0.6005859  c-0.7265625-0.1787109-1.4580078,0.2568359-1.6396484,0.9804688c-0.1816406,0.7226563,0.2568359,1.4560547,0.9794922,1.6386719  c0.6914063,0.1738281,1.3193359,0.2490234,1.8876953,0.2490234c1.3817139,0,2.3972168-0.4506836,3.1082153-1.0119629  c0.7108154,0.5612793,1.7263184,1.0119629,3.1085815,1.0119629c0.5673828,0,1.1962891-0.0751953,1.8867188-0.2490234  c0.7226563-0.1826172,1.1611328-0.9160156,0.9794922-1.6396484c-0.1826172-0.7236328-0.9140625-1.1591797-1.6396484-0.9794922  c-1.8026733,0.4543457-2.5696411-0.1027222-2.8548584-0.4345093c0.0021362-0.000061,0.0040894,0,0.0062256-0.000061  c0.5517578-0.0078125,0.9931641-0.4619141,0.9853516-1.0146484c-0.0078125-0.5517578-0.4824219-1.0166016-1.0146484-0.9853516  c-0.578125,0.0102539-1.0654297-0.0048828-1.4677734-0.03125c-0.1796875-0.0112305-0.3339844-0.0908203-0.4140625-0.2128906  c-0.0742188-0.1123047-0.0419922-0.2016602-0.0126953-0.2905273l0.715332-2.4672852h1.0924683  c0.2542114,1.3049927,1.4033813,2.2939453,2.7820435,2.2939453c1.5644531,0,2.8369141-1.2724609,2.8369141-2.8364258  c0-0.8244629-0.359375-1.5612183-0.9229736-2.0799561c0.111145,0.0253906,0.2255859,0.041626,0.3444214,0.041626  c0.8533325,0,1.545105-0.6917725,1.545105-1.545105s-0.6917725-1.5450439-1.545105-1.5450439  c-0.8532715,0-1.5450439,0.6917114-1.5450439,1.5450439c0,0.3621826,0.1297607,0.6908569,0.3384399,0.9542847  c-0.3259277-0.1307983-0.6795654-0.2072754-1.0517578-0.2072754c-1.1107178,0-2.0643311,0.6473999-2.5297852,1.5791016h-0.822876  l0.2286377-0.7885742c0.1542969-0.5302734-0.1513672-1.0849609-0.6816406-1.2387695  c-0.53125-0.152832-1.0849609,0.1523438-1.2382813,0.6821289l-0.3896484,1.3452148h-0.3413086  c-0.4654541-0.9317017-1.4190674-1.5791016-2.5297852-1.5791016c-0.3721924,0-0.7258911,0.076416-1.0519409,0.2072754  c0.2086792-0.2634277,0.3384399-0.5921021,0.3384399-0.9542847c0-0.8533325-0.6917725-1.5450439-1.545105-1.5450439  s-1.5450439,0.6917114-1.5450439,1.5450439S67.7786713,42.7505493,68.6320038,42.7505493z M79.1952972,43.7522583  c0.5712891,0,1.0361328,0.4648438,1.0361328,1.0366211s-0.4648438,1.0366211-1.0361328,1.0366211  s-1.0361328-0.4648438-1.0361328-1.0366211S78.6240082,43.7522583,79.1952972,43.7522583z M70.8906097,43.7522583  c0.5712891,0,1.0361328,0.4648438,1.0361328,1.0366211s-0.4648438,1.0366211-1.0361328,1.0366211  c-0.5722656,0-1.0371094-0.4648438-1.0371094-1.0366211S70.3183441,43.7522583,70.8906097,43.7522583z M35.4745941,64.0471802  c-0.3491211-0.0429688-0.6904297,0.0947266-0.9086914,0.3671875c-0.0480957,0.0601196-0.1123047,0.1220703-0.187439,0.1849976  c-0.0355225,0.0297241-0.0799561,0.0601196-0.1213989,0.090332l-3.5920391-0.7440796l0.0014038-3.2489014  c0.3100586-0.1702271,0.6135864-0.3551636,0.9100342-0.5559692c0.5072002-0.3435059,0.9989605-0.7213135,1.4654522-1.1539307  c0.9655762,0.5567627,2.0458374,0.8728638,3.1626587,0.8728638c0.3671875,0,0.7387695-0.0332031,1.1108398-0.1035156  c3.6123047-0.6757813,5.940918-4.4892578,5.190918-8.4980469c-0.1973267-1.0548706-0.5955811-2.0341797-1.1520996-2.8959961  c0.46521-0.5619507,0.8386841-1.2012939,1.0510254-1.8505859v0.0004883c0.4850464-1.4841919,0.0895386-3.053833-0.8757935-4.145813  c0.0585327-0.0924072,0.1031494-0.1951904,0.1292114-0.3063354c0.1220703-0.5205078,2.9160156-12.8256817-3.3881836-20.0195293  c-3.3686523-3.8442383-8.6518536-5.4482422-15.70117-4.7626953c-0.9208984-0.0341797-8.5668945-0.1435547-13.2543945,5.4726563  C5.6912708,27.0916157,4.8743763,33.604187,6.8819447,42.1049194c-1.1420288,1.0905762-1.6329346,2.803772-1.1090088,4.4066162  c0.4487305,1.3720703,1.6015625,2.7114258,2.8686523,3.3325195c0.5215454,0.2556763,1.0459595,0.3846436,1.5515747,0.3858643  c1.0164795,3.1865845,2.5792236,6.3070068,4.9840698,8.5887451c0.4766235,0.4522095,0.9790649,0.8467407,1.496521,1.206665  c0.2733765,0.1901855,0.5527344,0.366333,0.8372192,0.5306396l0.0012207,3.3896484l-3.5911255,0.7440796  c-0.0415039-0.0302124-0.0859375-0.0606689-0.12146-0.0903931c-0.0750732-0.0629272-0.1392212-0.1248779-0.1873169-0.1849365  c-0.21875-0.2714844-0.6230469-0.4082031-0.9682617-0.359375C5.8461781,64.9251099,0.7660999,70.5276489,0.564928,77.3782349  l-0.1469726,4.9912109c-0.0161133,0.5517578,0.4179687,1.0126953,0.9702148,1.0292969  c0.5629883,0.0205078,1.0126953-0.4189453,1.0288086-0.9707031l0.0008545-0.0291138l0.1461182-4.9620972  c0.1629639-5.5464478,4.0699463-10.1269531,9.4700317-11.2404175c0.1487427-0.0307007,0.2940674-0.0692139,0.4450073-0.0945435  c0.3016357,0.2581787,0.6749268,0.4902344,1.0948486,0.7028809c2.5236816,1.27771,6.9475098,1.7619629,10.5150146,1.7619629  c3.5678101,0,7.9912701-0.4846191,10.5149517-1.762085c0.4210815-0.2131348,0.7952271-0.4458008,1.0973511-0.7047119  c0.1506958,0.0246582,0.2959595,0.0626831,0.444519,0.0927734c5.3740234,1.088501,9.3051147,5.6801758,9.4685669,11.2441406  l0.1461182,4.9620972l0.0008545,0.0291138c0.0161133,0.5419922,0.4604492,0.9707031,0.9990234,0.9707031  c0.0097656,0,0.0200195,0,0.0297852,0c0.5522461-0.0166016,0.9863281-0.4775391,0.9702148-1.0292969l-0.1469727-4.9912109  C47.4120941,70.5276489,42.332016,64.9251099,35.4745941,64.0471802z M36.9472504,57.7903442  c-0.3338013,0.0620728-0.666687,0.0787354-0.9949341,0.0586548c2.5228882-1.0561523,4.0346069-3.9979248,3.4588013-7.0762329  v-0.0009766c-0.0518188-0.2769775-0.1242065-0.5438232-0.2055664-0.805603  c0.1104736-0.0428467,0.2206421-0.0679932,0.3310547-0.1221313c0.0963135-0.0472412,0.1902466-0.1060791,0.2849731-0.1613159  c0.34021,0.5870972,0.5877075,1.2417603,0.7189331,1.9425659C41.0878754,54.5510864,39.476059,57.3167114,36.9472504,57.7903442z   M35.4166718,56.1105957c0.9332275-1.4363403,1.6752319-3.0211792,2.2588501-4.6619263  C37.9202118,53.4814453,36.9860077,55.3601685,35.4166718,56.1105957z M40.503891,45.8899536v0.0004883  c-0.1013184,0.3099976-0.2808838,0.618042-0.4872437,0.913208c-0.1928711,0.2757568-0.413147,0.5308228-0.6599731,0.7495728  c-0.2171631,0.1923828-0.442688,0.3612061-0.6751099,0.4784546c0.0684204-0.2911377,0.1251831-0.5789185,0.1860352-0.867981  c0.0755615-0.3591919,0.1472168-0.7149658,0.211731-1.0689697c0.1791382-0.9823608,0.3187866-1.9367676,0.4251709-2.847229  C40.3957977,43.7473145,40.8415375,44.8585205,40.503891,45.8899536z M9.5219593,48.0481567  c-0.7885742-0.3862305-1.5654297-1.2939453-1.8476563-2.1577148v-0.0004883  c-0.3416138-1.0435181,0.1196899-2.1672974,1.0321655-2.6581421c0.187561,1.5107422,0.4710693,3.1600342,0.8874512,4.8470459  C9.5705433,48.0682983,9.5436878,48.0588989,9.5219593,48.0481567z M9.3647327,36.2835083  c-0.543457-0.0263672-1.0126953,0.4848633-1.0307617,1.0356445c-0.0004883,0.0107422-0.0019531,0.0898438-0.0019531,0.1005859  c0,0.5009766,0.0133057,1.1890259,0.0493774,1.9921875c-1.2234497-6.7346191-0.4178467-11.9111309,2.4584351-15.3676739  c3.7436523-4.4990234,9.9575195-4.7709961,11.3989258-4.7709961c0.1889648,0,0.2958984,0.0043945,0.3046875,0.0048828  c0.0493164,0.0024414,0.1015625,0.0014648,0.1513672-0.003418c6.4042969-0.6313477,11.1372051,0.7387695,14.0673809,4.0786133  c4.7895508,5.4594727,3.5825195,14.760252,3.1000977,17.4819317l-0.1332397,0.0006104  c0.0759888-1.1168823,0.1087036-2.1060791,0.1171265-2.8868408c0.0039063-0.3901367-0.21875-0.7470703-0.5712891-0.9140625  c-1.5258789-0.7241211-4.4155273-2.4995117-6.6274414-6.2592754c-0.1499023-0.2553711-0.4052734-0.4306641-0.6972637-0.4794922  c-0.2915039-0.0517578-0.590332,0.0336914-0.8149414,0.2265625C31.0634632,30.5847797,23.7348499,36.7190552,9.3647327,36.2835083z   M17.5101185,58.1657715c-0.328125-0.2456055-0.6491699-0.506897-0.9564209-0.7982788  c-2.03125-1.9271851-3.4772949-4.7316895-4.4649658-7.8467407c-0.1146851-0.3616943-0.2244263-0.7261963-0.3267822-1.09552  c-0.1260986-0.4550781-0.2425537-0.9146729-0.3505249-1.3783569c-0.286499-1.2304688-0.5128174-2.4830322-0.6801758-3.7319336  c-0.0155029-0.1158447-0.0280762-0.2312012-0.0426636-0.3469238c-0.0345459-0.2747192-0.0708618-0.5496216-0.1000977-0.8231812  c-0.0062866-0.059082-0.0103149-0.1173706-0.0163574-0.1763916c-0.0304565-0.2963257-0.0579224-0.5916138-0.0822144-0.8856201  c-0.0031738-0.0377197-0.0075073-0.0759888-0.0105591-0.1137085c-0.0727539-0.9063721-0.1184082-1.7995605-0.1365967-2.6660767  c11.6982422,0.0961914,18.7729492-3.9106445,21.1728516-5.5693359c2.1235332,3.1806641,4.6586895,4.9316406,6.319334,5.8149414  c-0.0160522,0.6173706-0.0529175,1.4069824-0.1185913,2.2963867c-0.0057983,0.0791626-0.0108643,0.1552734-0.0172119,0.2362061  c-0.0194092,0.2463379-0.0429688,0.5025635-0.067627,0.763855c-0.0092163,0.0979614-0.0180664,0.194519-0.0280762,0.2943726  c-0.0231934,0.230835-0.0494385,0.4660034-0.0772095,0.7062988c-0.0172729,0.1497192-0.0354614,0.3007202-0.0546265,0.4537354  c-0.0801392,0.6393433-0.1776733,1.3023682-0.295105,1.9859619c-0.0562134,0.3273315-0.1122437,0.6549072-0.1782227,0.9888306  c-0.0231934,0.1174316-0.0524902,0.2372437-0.0769653,0.3552856c-0.0363159,0.1752319-0.0751343,0.3511353-0.1143188,0.5274658  c-0.0079956,0.0360718-0.0152588,0.0718384-0.0233765,0.1079712c-0.0267334,0.1185913-0.0487061,0.2355957-0.0767822,0.3544922  c-0.0686035,0.2902832-0.1484375,0.581665-0.2254639,0.8728638c-0.0136719,0.0515747-0.026062,0.1030273-0.039978,0.1546021  c-0.0848389,0.3144531-0.177124,0.6270142-0.2723999,0.9404907c-0.7399902,2.4338989-1.8046265,4.8029175-3.3361206,6.6878052  c-0.0025024,0.0030518-0.0047607,0.0063477-0.0072021,0.0093994c-0.2045898,0.2512207-0.4223022,0.4874268-0.6437988,0.7201538  c-0.0083008,0.008728-0.0165405,0.017395-0.0248413,0.026123c-0.142334,0.1486206-0.2755718,0.3075562-0.425108,0.447876  c-0.0745239,0.0699463-0.1544189,0.1286621-0.2302246,0.1958618c-0.020813,0.0184326-0.0421753,0.0355225-0.0631104,0.0537109  c-0.2501221,0.2182007-0.5070801,0.421875-0.7711792,0.6103516c-0.0515137,0.0368042-0.1037598,0.0718384-0.1558228,0.1074829  c-0.274353,0.1878662-0.5558472,0.3598633-0.8446045,0.5161743c-0.324585,0.1756592-0.6576538,0.3323364-1.000061,0.4680176  c-1.333313,0.5282593-2.7952271,0.7633667-4.3832397,0.6782837c-0.0351563-0.0019531-0.0703125-0.0019531-0.1054688,0  c-1.6937256,0.0912476-3.2512207-0.182312-4.6676025-0.7894897c-0.3418579-0.1465454-0.6755371-0.3120728-1.0001831-0.4988403  c-0.2624512-0.151001-0.5186157-0.3162231-0.7695313-0.4934082C17.6641102,58.2727661,17.585741,58.2224121,17.5101185,58.1657715z   M24.0888538,66.5667114c-2.6412354,0-4.8395996-0.2409668-6.5370483-0.586792l1.1640015-0.241333  c0.4643555-0.0966797,0.796875-0.5058594,0.796875-0.9794922l-0.0012817-3.291748  c1.2529907,0.4300537,2.5884399,0.6589355,4.0110474,0.6589355c0.2338867,0,0.4702148-0.0058594,0.7084961-0.0175781  c1.5826416,0.0767822,3.0599365-0.1171265,4.4349976-0.5535278l-0.0014038,3.2039185  c0,0.4736328,0.3325195,0.8828125,0.796875,0.9794922l1.1644287,0.241394  C28.9283314,66.3258057,26.7299671,66.5667114,24.0888538,66.5667114z M24.0888538,69.0130005  c-1.5732422,0-2.8530273,1.2802734-2.8530273,2.8535156s1.2797852,2.8525391,2.8530273,2.8525391  s2.8535156-1.2792969,2.8535156-2.8525391S25.662096,69.0130005,24.0888538,69.0130005z M24.0888538,72.7190552  c-0.4702148,0-0.8530273-0.3828125-0.8530273-0.8525391c0-0.4707031,0.3828125-0.8535156,0.8530273-0.8535156  c0.4707031,0,0.8535156,0.3828125,0.8535156,0.8535156C24.9423695,72.3362427,24.559557,72.7190552,24.0888538,72.7190552z   M24.0888538,75.9358521c-1.5732422,0-2.8530273,1.2802734-2.8530273,2.8535156s1.2797852,2.8525391,2.8530273,2.8525391  s2.8535156-1.2792969,2.8535156-2.8525391S25.662096,75.9358521,24.0888538,75.9358521z M24.0888538,79.6419067  c-0.4702148,0-0.8530273-0.3828125-0.8530273-0.8525391c0-0.4707031,0.3828125-0.8535156,0.8530273-0.8535156  c0.4707031,0,0.8535156,0.3828125,0.8535156,0.8535156C24.9423695,79.2590942,24.559557,79.6419067,24.0888538,79.6419067z   M27.6650257,53.5081177c0.3227539,0.4453125,0.2304688,1.0644531-0.2124023,1.3896484  c-0.9345703,0.6865234-2.8110352,0.7402344-3.3637695,0.7402344s-2.4287109-0.0537109-3.3632813-0.7402344  c-0.4428711-0.3251953-0.5351563-0.9443359-0.2124023-1.3896484s0.9506836-0.5410156,1.3964844-0.2216797  c0.1542969,0.1103516,0.9165039,0.3515625,2.1791992,0.3515625c1.2631836,0,2.0253906-0.2412109,2.1796875-0.3515625  C26.715807,52.9671021,27.3422718,53.0628052,27.6650257,53.5081177z M30.009264,53.5413208  c0.0859375,0.3452759,0.0890503,0.859314-0.2097168,1.4602661c-0.0073242,0.0147095-0.0180054,0.0302124-0.0256958,0.0450439  c-0.0638428,0.1228638-0.1199951,0.2438965-0.2128296,0.3735962c-0.0945435,0.1316528-0.2330933,0.2006226-0.3793945,0.2360229  c-0.0501099,0.012146-0.0977173,0.0354614-0.1494141,0.0354614c-0.1308594,0-0.2631836-0.0400391-0.3779297-0.1220703  c-0.2919922-0.2089844-0.3588867-0.6152344-0.1499023-0.9072266c0.0236816-0.032959,0.0282593-0.0611572,0.0487061-0.0933838  c0.1686401-0.2653809,0.2454224-0.508728,0.194458-0.7142334c-0.0927734-0.3720703-0.5263672-0.6552734-0.637207-0.7099609  c-0.0228882-0.0114136-0.0370483-0.0315552-0.0579834-0.045166c-0.2727661-0.1778564-0.3828125-0.5285034-0.2344971-0.8269043  c0.0214844-0.0429077,0.0559692-0.072998,0.0849609-0.1088867c0.1872559-0.2318115,0.5075684-0.3209229,0.7866211-0.1831055  c0.0184937,0.0092773,0.067688,0.036438,0.1276245,0.0718384c0.1105347,0.0652466,0.2731934,0.1729736,0.4506836,0.3293457  C29.561327,52.6404419,29.8801746,53.0228882,30.009264,53.5413208z M19.9677601,48.9202271  c0.9987183,0,1.8726807-0.5246582,2.3742676-1.3095093l-0.4904785,2.5223999  c-0.0532227,0.2734375,0.0102539,0.5566406,0.1748047,0.78125c0.1650391,0.2255859,0.4160156,0.3710938,0.6928711,0.4023438  l2.512207,0.2871094c0.0385742,0.0048828,0.0771484,0.0068359,0.1152344,0.0068359  c0.5014648,0,0.9335938-0.3759766,0.9921875-0.8867188c0.0625-0.5488281-0.331543-1.0439453-0.8798828-1.1064453  l-1.4379883-0.1650391l0.5461426-2.8085938h0.8766479c0.2549438,1.2957153,1.3972778,2.2763672,2.7666626,2.2763672  c0.078064,0,0.1515503-0.0168457,0.2280273-0.0230713c0.4470825-0.0365601,0.8634644-0.1724854,1.2275391-0.3936768  c0.473877-0.2878418,0.8547974-0.7072144,1.0922241-1.2120361c0.1710815-0.3636475,0.2739868-0.7651978,0.2739868-1.1929932  c0-0.020813-0.0057373-0.0401001-0.0061646-0.060791c-0.017334-0.7957153-0.3657837-1.5061646-0.9124146-2.0092163  c0.1091309,0.027771,0.2214966,0.0470581,0.3392944,0.0470581c0.7015381,0,1.274353-0.5258179,1.3612061-1.2037354  c0.0074463-0.0579834,0.0176392-0.1151123,0.0176392-0.1751099c0-0.3102417-0.1062012-0.5934448-0.2791748-0.8238525  c-0.2515259-0.335083-0.6483765-0.5549927-1.0996704-0.5549927c-0.4559326,0-0.8569336,0.223999-1.1079712,0.5650635  c-0.1682129,0.2285767-0.270813,0.5082397-0.270813,0.8137817c0,0.064209,0.010437,0.1256104,0.0189209,0.1875  c0.0328369,0.2391357,0.124939,0.4573364,0.2640381,0.6409912c-0.3511963-0.1572266-0.7376099-0.2489624-1.1466675-0.2489624  c-1.1034546,0-2.0508423,0.6426392-2.5144653,1.5678711h-0.7825317c0.0939331-0.5354004-0.2545776-1.0500488-0.7904053-1.1542969  c-0.5454102-0.105957-1.0668945,0.2490234-1.1723633,0.7905273l-0.0707397,0.3637695h-0.3977051  c-0.463623-0.9252319-1.4110107-1.5678711-2.5144653-1.5678711c-0.4089966,0-0.7954102,0.0916748-1.1466064,0.2489014  c0.1303711-0.1721191,0.2214355-0.3735962,0.2593994-0.5953369c0.0130005-0.0761719,0.0234985-0.1532593,0.0234985-0.2330933  c0-0.2835693-0.0860596-0.546875-0.2328491-0.7660522c-0.2473755-0.3693237-0.6680298-0.612793-1.1459351-0.612793  c-0.4821777,0-0.9052734,0.2484131-1.1517334,0.623291c-0.1427612,0.2171631-0.2271118,0.4762573-0.2271118,0.7555542  c0,0.0841064,0.0103149,0.1655884,0.0247192,0.2454834c0.1162109,0.6439819,0.6766968,1.1333618,1.354126,1.1333618  c0.1177979,0,0.2301636-0.0192871,0.3392944-0.0470581c-0.5608521,0.5161743-0.9185791,1.2494507-0.9185791,2.0700073  C17.1459827,47.6546021,18.4116077,48.9202271,19.9677601,48.9202271z M28.2104359,45.0759888  c0.5634766,0,1.0219727,0.4584961,1.0219727,1.0224609c0,0.5634766-0.4584961,1.0219727-1.0219727,1.0219727  s-1.0219727-0.4584961-1.0219727-1.0219727C27.1884632,45.5344849,27.6469593,45.0759888,28.2104359,45.0759888z   M19.9677601,45.0759888c0.5634766,0,1.0219727,0.4584961,1.0219727,1.0224609c0,0.5634766-0.4584961,1.0219727-1.0219727,1.0219727  s-1.0219727-0.4584961-1.0219727-1.0219727C18.9457874,45.5344849,19.4042835,45.0759888,19.9677601,45.0759888z   M15.6743031,40.9454346c-0.3378296,0.1515503-0.5447998,0.2961426-0.5512695,0.3009644  c-0.449707,0.3222656-1.0742188,0.2172852-1.3950195-0.230957c-0.0135498-0.0189209-0.0153809-0.0415039-0.0274048-0.0609741  c-0.2741089-0.4436646-0.171936-1.0263062,0.2583618-1.3340454c1.1665039-0.8354492,4.0258789-1.8779297,6.4975586,0.1557617  c0.3468018,0.2856445,0.4377441,0.7510986,0.2761841,1.1462402c-0.0369873,0.0905762-0.0736084,0.1818848-0.1389771,0.2614746  c-0.1977539,0.2402344-0.484375,0.3647461-0.7729492,0.3647461c-0.2236328,0-0.4487305-0.074707-0.6347656-0.2275391  c-0.1980591-0.1630249-0.3983765-0.2863159-0.5982666-0.388916C17.4476795,40.3471069,16.3202381,40.6557007,15.6743031,40.9454346z   M27.4292469,40.8919067c-0.1433716-0.3882446-0.045105-0.8377075,0.2924194-1.1157227  c2.4731445-2.0332031,5.3310528-0.9902344,6.4975567-0.1557617c0.4009399,0.2867432,0.5074463,0.8095703,0.3010254,1.2391968  c-0.0248413,0.0517578-0.0354614,0.1075439-0.0700684,0.1558228c-0.3212891,0.4472656-0.9428711,0.5517578-1.390625,0.234375  c-0.0323486-0.022583-0.3127441-0.2111206-0.7402344-0.380188c-0.6450176-0.2550049-1.6293316-0.4633789-2.6367779,0.0120239  c-0.2304077,0.1087036-0.461792,0.2514038-0.6903687,0.4394531c-0.1860352,0.152832-0.4111328,0.2275391-0.6347656,0.2275391  c-0.2885742,0-0.5751953-0.1245117-0.7729492-0.3647461C27.5114613,41.0950317,27.4669056,40.9940186,27.4292469,40.8919067z"/></svg>