<svg xmlns="http://www.w3.org/2000/svg" xmlns:xlink="http://www.w3.org/1999/xlink" xmlns:xodm="http://www.corel.com/coreldraw/odm/2003" xml:space="preserve" version="1.1" style="shape-rendering:geometricPrecision;text-rendering:geometricPrecision;image-rendering:optimizeQuality;" viewBox="0 0 60000 75000" x="0px" y="0px" fill-rule="evenodd" clip-rule="evenodd"><defs><style type="text/css">
   
    .fil0 {fill:white;fill-rule:nonzero}
   
  </style></defs><g><path class="fil0" d="M28712.52 4406.31c309.63,39.37 653.87,186.66 968.75,406.92 -83.76,-263.58 -188.31,-496.16 -320.66,-691.84 -283.32,-418.91 -718.34,-676.89 -1393.66,-716.6 -675.32,39.71 -1110.34,297.69 -1393.65,716.6 -138.79,205.21 -247.01,450.98 -332.74,730.53 313.04,-216.29 658.06,-368.49 977.19,-431.78 244.84,-286.42 613.61,-470.44 753.38,-470.44 137.5,0 496.66,178.12 741.39,456.61zm1839.95 7778.81c-45.14,-10.28 -86.96,-20.22 -230.07,-52.18 -158.93,-35.51 -330.33,-73.8 -505.6,-111l-8.24 9.91c-46.26,55.93 -90.4,114.46 -133.24,176.45l-13.59 19.66c-489.81,708.66 -703.78,1018.22 -1505.28,1119.41 -218.32,27.61 -417.7,-126.99 -445.31,-345.31 -27.61,-218.32 126.99,-417.7 345.31,-445.31 380.79,-48.08 547.98,-214.89 804.22,-574.4l-24.99 -1982.79c-279.64,126.13 -571.1,188.38 -864.45,186.85 -236.47,-1.23 -471.58,-44.03 -700.15,-128.33l27.41 1733.82c3.45,220.05 -172.14,401.24 -392.19,404.69 -162.07,2.54 -303.04,-92.04 -367.47,-229.98 -248.58,50.6 -513.43,108.85 -752.63,161.46 -148.47,32.65 -286.57,63.03 -413.37,89.45 -48.36,181.05 -100.62,359.93 -156.19,537.16 1089.2,1637.75 2014.34,2768.96 3055.83,3677.48 77.75,67.82 156.22,134.42 235.51,199.98 534.08,-125.2 880.6,-633.46 1226.61,-1141.09 391.52,-574.42 782.67,-1148.1 1464.99,-1395.54 -247.99,-624.72 -473.5,-1253.07 -647.11,-1910.39zm-905.01 -1012.44c232.56,46.04 481.21,100.64 713.27,152.33 -32.09,-177.84 -59.87,-358.32 -82.79,-541.93 -83.38,-667.87 -131.35,-1336.1 -168.34,-1983.05 -148.1,242.96 -310.75,453.88 -484.07,632.66l21.93 1739.99zm2279.03 18930.45l1.94 -1.31c-16.56,-276.18 -32.86,-550.82 -48.6,-824.3 -781.37,518.35 -1476.08,895.61 -2266.43,1215.81 -885.09,358.59 -1881.54,641.64 -3251.03,969.74l60.68 892.66c1255.76,-301.55 2183.07,-562.82 2991.69,-880.92 876.17,-344.66 1622.17,-759.76 2511.75,-1371.68zm57.51 921.8c-777.99,508.39 -1476.19,877.98 -2278.64,1193.64 -877.23,345.08 -1870.99,622.47 -3227.36,945.48l221.92 3264.71c0.33,4.92 0.53,9.81 0.68,14.7 6.77,119.36 5.39,232.16 -3.79,337.85 -37.98,436.84 -202.2,810.66 -472.74,1087.22 -272.61,278.67 -645.28,449.34 -1097.56,476.91 -108.25,6.59 -217.41,5.37 -326.89,-4.15 -9.35,-0.81 -18.59,-1.95 -27.73,-3.38l-4681.32 -559.71c-210.73,-18.26 -454.62,66.76 -617.75,206.95 -58,49.84 -100.51,102.47 -118.73,153.2 -10.88,30.28 -11.21,63.96 3.04,99.57 50.96,127.35 219.74,274.65 562.18,433.29l2228.28 1032.29c316.14,146.46 517.75,340.29 627.65,555.16 71.25,139.3 102.57,283.6 99.97,427.94 -2.53,140.01 -35.76,275.07 -94.19,401.22 -126.6,273.27 -378.35,517.26 -686.26,674.74 -240.87,123.22 -744.84,236.65 -1323.83,336.97 -536.67,92.99 -1175.37,181.78 -1705.28,254.38 -1146.01,157.02 -1639.87,-561.05 -1790.54,-1660.77 -155.04,-1131.61 92.27,-2699.29 294.58,-3981.73 121.56,-770.62 225.95,-1432.29 209,-1771.54 -1.72,-20.98 -3.32,-41.88 -4.96,-62.8l-0.04 -0.39c-0.97,-8.83 -1.62,-17.62 -2.01,-26.38 -224.86,-2914.45 263.21,-5377.88 814.68,-8159.35 217.2,-1095.54 444.25,-2240.63 635.12,-3441.28 -626.65,-742.71 -984.79,-1516.44 -717.35,-2627.61 44.69,-185.72 88.62,-369.11 132.03,-550.42 576.68,-2408.29 1067.85,-4459.45 2179.73,-6896.83 366.12,-802.56 744.94,-1687.08 1123.73,-2571.55 1370.04,-3199.01 2740.1,-6397.79 4268.26,-7292.27 410.42,-413.8 967.4,-662.97 1732.72,-703.89 15.35,-1 30.92,-1.15 46.66,-0.35 768.44,39.92 1327.28,289.35 1738.78,704.24 1528.16,894.48 2898.22,4093.32 4268.27,7292.33 378.78,884.46 757.59,1768.96 1123.7,2571.49 497.78,1091.19 871.13,2104.98 1183.47,3108.07 9.88,-8.25 20.52,-15.84 31.91,-22.65 623.28,-371.46 1079.31,-1133.74 1356.59,-2261.82 263.89,-1073.61 362.04,-2467.13 285.1,-4160.44 -152.26,-132.05 -265.77,-287.79 -350.3,-482.63 -90.64,-208.92 -140.7,-453.32 -165.87,-758.74 -142.24,163.26 -292.95,330.26 -450.45,504.78 -90.5,100.28 -183.35,203.14 -298.2,331.97 -82.43,92.61 -198.28,137.81 -313.21,133.63 -41.54,2.35 -100.02,9.06 -159.16,15.83 -359.06,41.16 -735.85,84.35 -1107.99,-333.05 -1111.68,-1246.88 -1340.55,-1556.28 -1623.05,-2763.37 -22.74,-9.19 -44.94,-20.59 -66.33,-34.32 -175.43,-112.59 -305.08,-237.63 -399.95,-368.7 -101.36,-140.03 -162.24,-284.7 -195.74,-427.88 -54.59,-233.25 -36.1,-453.96 -14.71,-709.58 24.85,-296.79 54.71,-653.46 -60.6,-1077.32 -241.35,-887.55 75.64,270.33 -28.55,-110.22 -365.22,-1334.08 -705.94,-2578.69 1401.28,-3219.41 238.52,-72.52 435.38,-47.42 678.87,-16.39 246.28,31.39 559.38,71.3 1023.23,-37.46 170.02,-39.86 214.96,-50.88 259.7,-61.82 631.2,-154.44 1129.6,-276.38 1837.39,-110.3 868.16,203.73 1344.4,575.13 1622.47,1114.51 259.19,502.74 313.56,1110.22 357.38,1858.01 39.99,682.27 -72.92,1238.36 -300.22,1751.86 -219.84,496.65 -543.71,941.96 -938.08,1422.51 -3.33,4.05 -6.74,7.99 -10.2,11.87 -88.52,424.41 -249.88,793.9 -466.79,1145.74l38.22 764.63c14.81,296.25 46.88,507.9 111.82,657.6 50.82,117.14 131.67,203.49 255.17,278.47 167.56,101.74 459.04,216.7 813.72,335.67 20.88,5.11 41.12,11.9 60.62,20.18 647.71,213.84 1487.43,438.86 2171.38,622.12 74.33,19.92 142.42,38.16 515.61,140.13 443.63,121.22 822.61,593.67 1145.8,1181.94 288.6,525.3 541.45,1144.54 750.21,1658.54 533.17,1312.6 588.01,4295.58 628.6,6503.75 4.85,263.98 9.5,516.47 15,764.8 33.2,1498.76 -770.4,3042.12 -1795.15,4497.23 268.86,2150.44 425.2,4065.42 506.11,5946.4 82.72,1922.87 86.75,3815.52 51.8,5891.86 -37.29,2216.75 154.3,2871.55 692.99,4710.84l0.42 -0.12 4.25 14.5c2.22,7.55 4.18,15.12 5.93,22.68 406.87,1426.06 -487.69,2117.35 -1778.41,2495.36 -438.55,128.44 -919.95,217.15 -1403.63,286.77l-564.08 6408.02 1362.04 5029.07c162.88,601.39 265.37,1097.58 133.71,1522.44 -149.32,481.87 -540.15,793.88 -1354.18,917.76 -10.82,1.63 -21.61,2.78 -32.34,3.52l-1856.08 250.54c-27.61,3.71 -54.93,4.49 -81.67,2.6 -217.12,157.23 -519.97,244.56 -931.16,260.55l-3912.82 399.26c-37.88,3.73 -75.05,2.03 -110.72,-4.47 -253.41,242.02 -578.13,413.57 -968.62,479.55 -138.83,23.46 -286.19,33.06 -441.79,27.11 -1158.68,81.77 -1836.02,95.93 -2434.37,29.38 -607.12,-67.52 -1105.57,-213.91 -1918.1,-453.78 -2033.05,-600.19 -2279.29,-526.95 -3565.77,-144.32 -225.13,66.95 -480.49,142.91 -800.23,231.89 -388.69,108.17 -749.27,142.52 -1055.72,96.01 -242.07,-36.74 -454.63,-122.81 -627.93,-261.23 -104.37,-83.37 -192.11,-183.38 -261.09,-300.51 -26.08,3.07 -52.86,3.62 -80.04,1.38l-2597.6 -222.66c-558.93,-47.89 -958.61,-215.78 -1201.75,-542.47 -101.3,-136.11 -169.48,-292.27 -204.52,-470.95l-1157.13 -308.3c-17.79,-4.68 -34.96,-10.52 -51.5,-17.36l-0.07 0.17c-418.19,-174.13 -706.13,-404.12 -867.85,-718.8 -163.45,-318.02 -183.16,-689.91 -62.19,-1142.74 1.78,-6.67 3.72,-13.25 5.82,-19.75l3515.98 -12446.89c59.54,-212.28 279.91,-336.11 492.19,-276.57 212.28,59.54 336.11,279.91 276.57,492.19l-3516.58 12449.01 -2.1 8.27c-67.66,253.26 -68,439.15 -0.31,570.86 67.25,130.86 214.9,239.91 442.64,337.58l956.16 254.76c4.35,-20.48 8.9,-41.12 13.72,-61.97 2.27,-9.93 4.9,-19.69 7.87,-29.27l2181.29 -8424.49c55.22,-213.14 272.8,-341.16 485.94,-285.94 213.14,55.22 341.16,272.8 285.94,485.94l-2181.49 8425.25 -1.43 6.63c-79.79,345.13 -72.1,571.37 21.67,697.37 92.32,124.05 302.77,192.83 626.75,220.59l2438.81 209.05c3.68,-70.7 11.2,-143.94 22.71,-219.76 1.36,-9.06 3.04,-17.99 4.98,-26.8l2432.09 -14618.35c36.24,-217.46 241.92,-364.36 459.38,-328.12 217.46,36.24 364.36,241.92 328.12,459.38l-2432.09 14618.36 -1.86 14.29c-25.71,169.36 -22.1,304.04 6.45,406.64 21.91,78.73 60.08,137.99 111.4,178.98 60.25,48.13 145.13,79.72 249.81,95.61 197.48,29.97 445.19,3.57 724.46,-74.15 289.45,-80.55 554.3,-159.33 787.73,-228.75 1474.62,-438.59 1756.87,-522.54 4015.77,144.32 769.12,227.06 1240.69,365.59 1780.6,425.64 545.56,60.68 1188.52,45.62 2308.68,-33.77l0.04 0.54c15.41,-1.07 31.03,-1.28 46.84,-0.54 106.98,5.37 207.66,-0.55 301.84,-16.46 283.54,-47.91 505.48,-192.22 659.6,-392.11 162.8,-211.16 255,-485.86 269.77,-779.88 6.14,-122.17 -1.26,-248.09 -22.66,-374.74l-3719.16 -22009.26c-36.24,-217.46 110.66,-423.14 328.12,-459.38 217.46,-36.24 423.14,110.66 459.38,328.12l3719.16 22009.26c30.61,181.18 41.07,363.84 32.04,543.5 -10.45,208.03 -47.26,411.47 -109.34,603.72l3437.07 -350.72 0.02 0.18c8.76,-0.86 17.61,-1.46 26.54,-1.74 314.88,-10.58 485.45,-62.51 548.45,-155.03 68.33,-100.35 60.42,-299.56 5.03,-581.69l0.21 -0.04 -2778.66 -12949.57c-45.73,-215.73 92.09,-427.71 307.82,-473.44 215.73,-45.73 427.71,92.09 473.44,307.82l2780.01 12955.86 1.25 6.31 0.31 -0.06c40.87,208.17 61.01,398.7 54.58,572.48l1412.55 -190.67c6.72,-1.36 13.52,-2.56 20.38,-3.59 455.34,-69.29 657.28,-189.95 710.44,-361.52 70.83,-228.59 -14.42,-606.73 -143.09,-1081.8l-1374.86 -5076.41c-4.27,-13.03 -7.88,-26.34 -10.8,-39.87l-3602.66 -13302.12c-56.95,-213.14 69.67,-432.12 282.81,-489.07 213.14,-56.95 432.12,69.67 489.07,282.81l235.79 870.6c108.42,-200.34 205.87,-422.73 284.35,-644.99 136.13,-385.53 210.55,-749.42 177.02,-963.16l-5.09 -20.4c-36.16,-56.29 -421.97,-222.74 -649.73,-320.99 -28.81,-12.43 -16.18,-6.98 0.02,-0.05l0.21 -0.48 -63.72 -27.83c-105.84,-46.12 -167.35,-72.03 -228.45,-97.76 -803.53,-338.43 -1569.79,-661.15 -1598.93,-1698.31 -4.08,-145.38 -26.14,-294.3 -83.21,-426.13 -5.27,-10.27 -10.13,-20.81 -14.54,-31.63 -15.46,-31.72 -33.12,-62.31 -53.24,-91.45 -105.91,-153.37 -293.44,-281.3 -610.07,-348.01 -133.17,-28.05 -173.66,-36.41 -209.89,-43.85 -1225.53,-252.05 -1874.99,-385.64 -1966.32,-1949.13 -10.76,-184.17 -23.2,-392.85 -36.3,-611.03zm6502.4 -20878.26c52.17,1593.61 -54.48,2923.06 -312.04,3970.88 -310.17,1261.89 -842.98,2128.13 -1585.11,2570.42 -48.37,28.93 -102.6,39.55 -154.62,33.91 178.52,604.23 338.19,1208.09 492.92,1826.26 8.64,-6.15 17.58,-12.02 26.84,-17.56 756.62,-450.93 1312.03,-1383.59 1652.16,-2767.35 341.02,-1387.4 458.67,-3208.02 339.89,-5433.63 -170.18,-61.46 -325.56,-122.69 -460.04,-182.93zm1272.26 448.61c96.16,2165.92 -33.57,3960.87 -377.11,5358.57 -392.76,1597.89 -1071.01,2696.86 -2017.78,3261.11 -81.09,48.5 -172.46,64.83 -259.3,52.77 64.01,264.13 128.1,531.73 193.28,803.92 43.41,181.31 87.34,364.69 132.03,550.41 222.71,925.33 11.56,1616.64 -427.16,2250.92 26.73,445.16 50.68,883.06 73.5,1300.46 17.33,316.92 34,621.62 51.67,922.55l3872.85 -4988.66c-18.4,-314.63 -36.81,-612.18 -54.06,-891.13 -197.66,-3195.1 -245.12,-3962.44 1192.82,-7887.64 1.26,-3.43 2.56,-6.83 3.9,-10.2 -62.63,-58.38 -123,-97.7 -180.14,-113.31 -61.27,-16.74 -217.62,-58 -512.49,-137.01 -521.64,-139.77 -1130.41,-302.9 -1692.01,-472.76zm792.2 33070.13c15.67,-2.99 31.65,-5.06 47.84,-6.15 552.02,-71.53 1105.13,-161.87 1579.51,-300.81 861.68,-252.36 1468.64,-681.06 1232.69,-1514.83l-3.95 -12.59 -4.25 -14.5 0.43 -0.13 -0.43 -1.43c-563.57,-1924.25 -764,-2608.62 -724.67,-4946.66 34.6,-2055.57 30.49,-3932.17 -51.8,-5844.98 -69.58,-1617.64 -195.02,-3257.47 -400.16,-5048.74 -396.96,512.96 -805.59,1010.46 -1196.24,1486.05 -430.45,524.05 -837.98,1020.18 -1196.81,1501.53 -132.02,176.9 -382.47,213.27 -559.37,81.25 -176.9,-132.02 -213.27,-382.47 -81.25,-559.37 340.32,-456.51 769,-978.4 1221.81,-1529.67 1612.37,-1962.93 3547.03,-4318.24 3501.06,-6393.44 -5.17,-233.11 -9.98,-494.64 -15,-767.92 -39.36,-2141.78 -92.56,-5035.09 -572.34,-6216.25 -182.03,-448.18 -398.61,-978.94 -634.09,-1432.66 -1180.21,3307.31 -1130.34,4116.24 -950.38,7025.21 32.16,520 68.48,1106.89 104.58,1824.47 10.35,220.05 -159.64,406.84 -379.69,417.19 -139.62,6.57 -265.83,-59.49 -342.09,-164.84l-3399.94 4379.51c-131.46,170.23 -373.41,204.88 -547.02,81.02 151.75,1212.72 579.36,2225.77 1007,3238.76 240.8,570.41 481.63,1140.87 678.56,1749.57 3.85,9.94 7.34,20.1 10.44,30.49 117.87,395.7 195.5,795.07 140.23,1118.38 -78.14,457.18 -349.83,752.47 -950.14,733.55 -218.78,-6.88 -416.65,-4.86 -597.46,-3.01 -57.85,0.59 -114.27,1.16 -169.41,1.53l981.98 3934.4c3.48,14.17 6.13,28.33 8.04,42.47 58.91,351.62 -31.22,863.92 -209.18,1367.95 -174.94,495.46 -440.43,1004.74 -733.37,1353.27 -9.93,11.8 -20.4,22.85 -31.34,33.21l1248.86 4611.17c370.94,-66.36 794.71,-114.35 1246.17,-165.46 241.4,-27.33 490.94,-55.59 741.18,-87.54zm-724.46 4916l358.05 -4067.44c-96.73,11.17 -192.61,22.02 -287.27,32.74 -414.3,46.9 -804.88,91.13 -1124.3,144.76l1053.52 3889.94zm-3758.5 -41416.78c-15.9,0.19 -31.58,-0.59 -47.02,-2.22 -7.16,0.92 -14.37,1.68 -21.66,2.22 -368.88,28.56 -606.46,89.91 -769.73,186.25 -142.12,83.86 -241.9,208.77 -338.26,372.11 196.14,271.53 459.59,573.82 835.55,995.51 96.05,107.73 262.18,88.7 420.49,70.55 24.78,-2.84 49.45,-5.67 74.75,-8.27 62.14,-69.14 128.02,-142.13 192.68,-213.78 269.17,-298.24 516.28,-572.08 729.86,-839.35 -2.47,-4.56 -4.89,-9.15 -7.2,-13.84 -89.59,-180.92 -172.84,-328.14 -299.15,-410.76 -142.51,-93.23 -371.99,-144.06 -770.31,-138.42zm-46.61 -794.69c12.25,-1.28 24.66,-2.04 37.23,-2.19 577.28,-8.17 946.37,89.37 1217.19,266.54 156.24,102.2 270.37,221.44 365.38,356.19 130.78,-249.28 224,-506.93 270.49,-786.95 11.9,-73.15 43.01,-138.38 87.32,-191.42 8.46,-39.23 23.04,-77.85 44.11,-114.51 240.14,-418.03 296.44,-778.84 180.37,-1099.77 -126.63,-350.15 -454.76,-687.89 -970.5,-1029.1 -351.12,87.81 -709.94,95.43 -1190.14,104.52 -783.8,14.83 -1330.07,125.41 -1645.36,375.08 -270.74,214.37 -379.17,575.78 -334.63,1123.6 152.9,735.71 251.6,1199.19 389.56,1574.39 98.93,-107.22 212.49,-201.25 350.92,-282.94 269.65,-159.12 616.52,-256.9 1116.61,-295.63 27.7,-2.06 54.95,-1.24 81.45,2.19zm1361.42 -4701.47c105.71,-87.91 262.68,-73.48 350.59,32.23 87.91,105.71 73.48,262.68 -32.23,350.59 -384.39,320.24 -701.78,484.38 -1050.02,571.7 -336.77,84.43 -687.67,91.87 -1157.56,100.76 -137.52,2.15 -250.78,-107.59 -252.93,-245.11 -2.15,-137.52 107.59,-250.78 245.11,-252.93 433.34,-8.2 756.71,-15.01 1044.28,-87.1 276.11,-69.23 533.31,-204 852.76,-470.14zm1586.86 2847.11c123.99,-348.59 181.54,-730.81 154.84,-1186.31 -22.59,-385.57 -47.33,-726.13 -102.86,-1015.35 -220.73,415.67 -525.28,741.69 -658.05,852.3 -97.94,81.59 -191.86,153.55 -283.22,217.1 440.38,351.91 739.26,724.96 889.29,1132.26zm-473.8 -3126.4c-179.56,-124.44 -418.15,-223.58 -735.59,-298.07 -526.07,-123.44 -941.93,-21.69 -1468.63,107.18 -124.64,30.49 -254.38,62.23 -265.94,64.94 -597.43,140.09 -993.18,89.64 -1304.49,49.96 -150.47,-19.18 -272.13,-34.68 -347.61,-11.73 -1365.4,415.16 -1123.29,1299.57 -863.78,2247.53 124.27,453.9 -189.67,-703.73 31.67,110.22 27.7,101.83 49.13,199.47 65.5,293.27 87.8,-121.96 193.25,-231.39 316.72,-329.15 464.52,-367.83 1166.08,-528.78 2126.62,-546.96 422.39,-7.99 737.52,-14.61 1010.29,-82.99 254.48,-63.81 493.61,-189.75 793.59,-439.66 97.6,-81.31 337.32,-344.76 502.32,-693.43 70.38,-148.73 123.96,-309.82 139.33,-471.11zm-12928.55 9968.67l50.22 -11.04c275.19,-60.52 584.08,-128.46 874,-185.64l-24.8 -1568.53c-0.18,-11.39 0.15,-22.67 0.91,-33.83 -233.28,-213.11 -449.76,-481.41 -640.65,-804.46 -37.35,661.14 -85.58,1345.12 -170.93,2028.73 -24.33,194.92 -54.12,386.33 -88.75,574.77zm5230.8 -4539.48c2.33,17.09 3.57,34.44 3.64,51.96 25.36,367.93 45.1,752.81 65.43,1149.55 43.27,844.05 89.39,1743.45 204.61,2666.32 188.31,1508.22 746.33,2836.98 1328.72,4223.78l60.33 143.69c273,650.67 375.26,1583.09 383.57,2624.57 8.04,1008.74 -71.3,2124.51 -166.6,3178.96 -12.43,137.56 -23.98,274.49 -34.81,410.93 560.45,-38.25 1049.76,-167.33 1367.44,-557.41 539.05,-661.85 749.23,-633.22 1698.57,-503.88l8.59 1.17c218.32,29.34 371.52,230.12 342.18,448.44 -29.34,218.32 -230.12,371.52 -448.44,342.18l-8.59 -1.17c-587.6,-80.05 -717.7,-97.77 -973.55,216.38 -115.09,141.32 -238.81,259.9 -369.96,359.41 561.46,423.68 672.61,1180.42 789.88,1979.62 11.89,81.05 23.84,162.53 34.16,230.85l102.16 -99.75c971.52,-948.07 1750.79,-1708.54 1469.43,-2877.53 -44.69,-185.72 -88.62,-369.1 -132.03,-550.41 -566.53,-2365.94 -1049.07,-4381.01 -2129.74,-6749.96 -388.09,-850.72 -760.6,-1720.5 -1133.08,-2590.25 -381.25,-890.2 -762.5,-1780.39 -1143.17,-2614.43 109.22,589.99 193.24,1188.49 265.76,1769.32 190.91,1529.14 752.82,2867.14 1339.27,4263.59l60.34 143.72c264.95,631.5 364.27,1544.7 372.42,2567.73 7.99,1002.61 -71.06,2113.74 -166.01,3164.3 -12.4,136.99 -133.52,237.99 -270.51,225.59 -136.99,-12.4 -237.99,-133.52 -225.59,-270.51 93.8,-1037.76 171.89,-2133.53 164.07,-3115.48 -7.66,-961.5 -97.16,-1810.62 -335.32,-2378.27l-60.34 -143.72c-599.95,-1428.6 -1174.79,-2797.4 -1374.43,-4396.41 -105.34,-843.7 -235.07,-1724.01 -431.88,-2554.12 -137.5,-579.93 -307.25,-1134.64 -523.58,-1633.73 -92.86,-160.9 -185.64,-314.99 -278.35,-461.32 26.27,160.05 48.96,324.97 68.83,494.38 31.43,267.94 55.89,549.45 76.58,841.91zm-4855.1 -87.52c2.98,10.81 5.55,21.81 7.65,33.03 221.82,1162.13 675.48,1938.61 1209.19,2333.4 261.32,193.31 540,290.82 814.59,292.25 274.25,1.44 553.66,-93.39 816.83,-284.73 524.6,-381.42 974.97,-1132.64 1208.27,-2261.22 -7.62,-104.78 -15.79,-208.26 -24.66,-310.31 -46.77,-309.57 -243.52,-613.56 -495.96,-856.63 -140.43,-135.21 -293.87,-248.77 -444.91,-331.74 -24.74,276.49 -124.93,527.82 -274.26,720.09 -195.24,251.4 -473.53,406.9 -788.53,406.9 -315,0 -593.29,-155.5 -788.54,-406.9 -144.03,-185.44 -242.35,-425.86 -271.35,-690.79 -170.88,91.1 -338.87,211.51 -487.31,353.97 -239.35,229.7 -420.19,510.18 -464.81,805.03 -5.67,65.31 -11.05,131.21 -16.2,197.65zm-399.29 24462.79c-1.01,-9.64 -1.66,-19.25 -1.96,-28.82l-1088.83 -16016.61c-29.08,-43.82 -58.25,-87.88 -87.56,-132.4 -1.83,-2.78 -3.61,-5.57 -5.36,-8.37 -29.58,70.57 -59.26,141.25 -89.01,212.08l-60.26 143.53c-230.11,548.47 -316.67,1378.36 -324.18,2321.45 -7.77,975.8 70.03,2066.93 163.48,3100.82 310.31,3433.09 126.82,6476.45 -71.4,9763.92 -23.14,383.86 -46.51,771.24 -64.94,1086.72 -91.34,1563.5 -740.79,1697.08 -1966.32,1949.13 -36.23,7.44 -76.72,15.8 -209.89,43.85 -316.63,66.71 -504.17,194.64 -610.07,348.01 -108.53,157.19 -145.59,356.32 -151,549.21 -6.04,220.05 -189.33,393.54 -409.38,387.5 -220.05,-6.04 -393.54,-189.33 -387.5,-409.38 9.14,-325.71 80.2,-674.25 291.62,-980.45 214.05,-309.99 558.39,-561.23 1103.83,-676.15l213.01 -43.85c832.28,-171.17 1273.34,-261.89 1328.82,-1211.63 24.36,-416.95 44.73,-754.59 64.94,-1089.84 196.63,-3261.23 378.66,-6280.3 74.52,-9645.16 -95.3,-1054.45 -174.64,-2170.22 -166.6,-3178.96 8.3,-1041.48 110.57,-1973.89 383.56,-2624.57l60.26 -143.53c582.42,-1386.86 1140.48,-2715.67 1328.8,-4223.94 115.23,-922.89 161.34,-1822.31 204.61,-2666.39 37.53,-732.19 73,-1424.01 145.64,-2043.35 19.87,-169.4 42.57,-334.32 68.83,-494.36 -864.51,1364.49 -1735.9,3398.99 -2607.29,5433.66 -372.49,869.77 -745,1739.56 -1133.11,2590.31 -1080.67,2368.96 -1563.2,4384.02 -2129.73,6749.95 -43.41,181.31 -87.34,364.7 -132.03,550.42 -281.36,1169 497.9,1929.46 1469.44,2877.55 83.69,81.67 168.8,164.73 259.49,254.14 157.05,154.46 159.15,407.02 4.69,564.07 -154.46,157.05 -407.02,159.15 -564.07,4.69 -83.28,-82.1 -170.48,-167.21 -256.37,-251.02 -96.12,-93.8 -190.58,-186.02 -282.9,-277.26 -173.41,1023.2 -359.45,1961.5 -538.67,2865.46 -540.76,2727.43 -1019.17,5141.92 -800.86,7968.56 1.76,18.35 3.23,37.28 4.39,56.85 52.44,652.26 142.01,1326.62 276.57,2031.99 9.49,37.3 21.97,99.26 37.21,175.09 16.42,81.66 37.42,186.03 66.04,302.3 314.44,-270.2 790.1,-433.57 1205.23,-397.48l-0.03 0.3 12.53 1.26 4696.56 561.47c77.43,6.73 147.84,8.01 211.25,4.15 244.74,-14.92 439.84,-100.55 575.68,-239.41 137.87,-140.94 222.83,-345.96 244.62,-596.6 6.42,-73.86 7.75,-148.23 3.75,-222.55l-360.05 -5296.36zm763.78 -539.1c1263.25,-305.37 2190.81,-571.56 3005.99,-901.83 864.55,-350.27 1612.04,-777.04 2515.17,-1406.18 -77.06,-1481.44 -127.87,-2941.44 -105.33,-4442.34l-1010 219.38c-75.43,118.29 -180.68,232.87 -323.47,352.39 -333.46,279.1 -753.38,548.66 -1149.95,803.22l-94.63 60.78c-566.74,364.39 -881.85,310.07 -1384.58,223.38 -117.24,-20.21 -247.45,-42.67 -388.23,-58.66 -219.19,-24.16 -377.29,-221.44 -353.13,-440.63 24.16,-219.19 221.44,-377.29 440.63,-353.13 171.8,19.52 310.35,43.42 435.11,64.92 315.72,54.44 513.61,88.55 818.94,-107.76l94.63 -60.78c375.11,-240.79 772.32,-495.77 1068.71,-743.84 106.44,-89.09 162.62,-154.68 182.85,-211.24 0.81,-2.54 1.65,-5.08 2.52,-7.6l0.78 -2.64c17.97,-62.73 5.3,-154.82 -23.51,-281.8 -48.32,-214.87 86.69,-428.24 301.56,-476.56 214.87,-48.32 428.24,86.69 476.56,301.56 7.22,31.84 13.83,62.93 19.75,93.42l905.28 -196.63c11.12,-332.55 26.11,-667.58 45.59,-1005.8l-98.84 -1.65c-133.18,-2.25 -267.18,-4.54 -393.61,-5.15 -578.54,-2.82 -1405.42,403.78 -2107.53,749.04 -149.26,73.39 -225,111.11 -260.11,128.14 -564.16,273.59 -1242.81,820.73 -1847.61,1308.33 -207.47,167.27 -406.65,327.86 -589.68,468.47 -175.17,133.75 -425.63,100.17 -559.38,-75 -14.08,-18.44 -26.28,-37.72 -36.68,-57.6l412.2 6063.79zm5195.03 -15818.15c-461.52,155.52 -784.81,629.8 -1108.47,1104.66 -328.79,482.37 -657.98,965.15 -1150.03,1253.08 793.81,560.33 1689.64,1058.33 2781.52,1589.22 16.35,-375.96 24.8,-744.99 21.98,-1098.85 -7.52,-943.08 -94.07,-1772.99 -324.19,-2321.45l-60.33 -143.69c-53.78,-128.06 -107.35,-255.65 -160.48,-382.97zm-6266.93 49.64c1046.84,1558.66 1947.39,2649.14 2957.35,3530.15 1020.85,890.51 2164.62,1575.72 3695.25,2323.07 32.99,-367.55 63.88,-742 89.55,-1115.62 -39.83,-5.47 -79.49,-17.09 -117.7,-35.36 -1715.72,-824.07 -2977.9,-1566.39 -4112.49,-2556.11 -888.4,-774.97 -1691.12,-1695.88 -2564.61,-2920.69l52.65 774.56zm5940.61 6389.72c-1415.44,-711.05 -2511.15,-1389.77 -3508.26,-2259.57 -807.6,-704.49 -1544.4,-1529.6 -2327.92,-2593.94l349.16 5136.58c440.02,29.89 723.33,81.87 1031.27,252.19 291.84,161.4 564.85,410.66 995.91,841.72 20.38,20.38 38.07,42.41 53.13,65.66 275.58,-192.41 549.61,-363.22 812.27,-490.6 203,-98.45 229.8,-111.63 256.99,-125 737.44,-362.63 1598.95,-786.19 2337.45,-827.04zm-4047.72 1920.37c-367.28,-366.62 -593.26,-574.98 -792.41,-685.11 -160.47,-88.76 -333.21,-124.83 -592.16,-147.09l129.65 1907.29c25.06,-69.98 69.94,-133.78 133.41,-182.24 180.57,-138.72 373.3,-294.11 574.06,-455.97 177.51,-143.11 361.05,-291.08 547.45,-436.88zm-8908.22 14529.61c-146.92,1010.31 -261.73,2078.14 -154.45,2861.15 86.86,633.97 336.51,1052.74 893.66,976.41 507.33,-69.51 1121.52,-154.98 1677.16,-251.26 513.34,-88.95 941.25,-179.84 1095.71,-258.85 152.35,-77.92 271.31,-186.51 323.76,-299.74 14.03,-30.29 21.91,-57.29 22.31,-79.34 0.31,-17.72 -3.6,-35.58 -12.47,-52.94 -31.43,-61.45 -110.91,-127 -252.65,-192.66l-2139.06 -990.96c-910.71,-243.13 -1280.62,-1082.8 -1453.97,-1711.81zm9910.92 -32768.59c-97.51,-125.55 -159.54,-207.44 -159.97,-207.44 -0.43,0 -62.46,81.89 -159.97,207.44 -61.58,79.28 -108.82,169.27 -108.82,253.65 0,146.67 42.62,274.89 111.51,363.58 46.79,60.25 102.93,97.52 157.28,97.52 54.35,0 110.49,-37.28 157.27,-97.52 68.89,-88.7 111.51,-216.91 111.51,-363.58 0,-84.39 -47.24,-174.37 -108.81,-253.65zm9319.55 24294.65c-57.42,115.24 -169.51,200.56 -306.82,217.92 -218.32,27.61 -417.7,-126.99 -445.31,-345.31 -190.82,-1486.74 -279.96,-2569.15 -347.66,-3657.26 -0.86,-10.31 -1.78,-20.57 -2.6,-30.91 -0.82,-10.42 -1.23,-20.79 -1.24,-31.07 -23.92,-389.06 -45.29,-779.86 -67.78,-1191.1 -8.27,-151.25 -16.7,-305.39 -25.59,-465.18 -162.63,165.99 -334.62,333.83 -512.04,506.97 -85.87,83.8 -173.12,168.93 -256.39,251.04 -74.27,73.04 -169.9,111.05 -266.41,114.24l1038.37 6373.47c129.34,793.94 502.94,790.11 1204.49,782.93 192.06,-1.96 402.27,-4.12 628.72,3.01 91.33,2.87 129.93,-25.92 137.64,-71.05 30.6,-179.01 -30.31,-460.3 -118.35,-755.88l-3.66 -13.19c-188.49,-582.69 -421.31,-1134.17 -654.1,-1685.61l-1.27 -3.02zm-4345.03 -7227.52c-168.37,25.12 -341.51,39.65 -518.16,47.51 -169.29,2888.93 -7.91,5566.38 164.78,8430.58 20.21,335.25 40.58,672.89 64.94,1089.84 55.48,949.74 496.55,1040.46 1328.82,1211.63l213.01 43.85c95.91,20.21 185.58,44.64 269.44,72.86l-874.21 -4485.55c-41.42,-216.6 100.59,-425.77 317.19,-467.19 216.6,-41.42 425.77,100.59 467.19,317.19l1074.78 5514.69c96.88,230.84 134.56,473.47 141.05,704.6 14.71,523.9 550.05,749.38 1111.43,985.81 94.08,39.62 188.61,79.43 237.83,100.88l59.99 26.08 0.04 -0.1c-14.75,-6.63 -75.21,-33.32 0.32,-0.74 25.28,10.91 51.8,22.35 79.26,34.32l-780.41 -3126.78c-520.88,-109.85 -836.61,-439.62 -993.23,-1401.03l-1157.16 -7102.6c-25.24,-154.92 -39.75,-253.73 -54.11,-351.63 -121.35,-827.03 -233.39,-1590.05 -1152.79,-1644.22zm3742.84 14326.27c20.74,8.87 47.27,20.16 0.21,-0.48l-0.21 0.48zm315.24 -733.49c4.53,1.95 3.65,1.52 0.04,-0.1l-0.04 0.1z"/></g></svg>