<svg width="100" height="100" fill="#fff" xmlns="http://www.w3.org/2000/svg" xmlns:xlink="http://www.w3.org/1999/xlink" xmlns:a="http://ns.adobe.com/AdobeSVGViewerExtensions/3.0/" version="1.1" x="0px" y="0px" viewBox="28.653 16 115 130" enable-background="new 28.653 18.739 100 100" xml:space="preserve"><polygon display="none" points="104.237,17.821 83.613,0 83.613,35.62 104.237,17.821 "/><polygon display="none" points="36.804,38.697 27.87,38.697 27.87,55.971 36.804,55.971 36.804,38.697 "/><polygon display="none" points="58.203,25.866 49.247,25.866 49.247,55.971 58.203,55.971 58.203,25.866 "/><polygon display="none" points="68.891,19.462 59.935,19.462 59.935,55.971 68.891,55.971 68.891,19.462 "/><polygon display="none" points="47.515,32.292 38.581,32.292 38.581,55.971 47.515,55.971 47.515,32.292 "/><polygon display="none" points="86.028,21.878 86.028,13.059 70.623,13.059 70.623,55.971 79.579,55.971 79.579,21.878   86.028,21.878 "/><polygon display="none" points="60.596,12.739 60.596,10.164 54.921,11.076 50.865,5.288 44.848,5.288 40.564,12.739 39.401,19.166   41.931,19.622 42.979,13.674 45.053,10.096 45.053,27.325 41.84,30.538 43.663,32.361 47.605,28.396 47.605,20.396 53.463,20.396   53.463,26.709 56.015,26.709 56.015,17.821 50.637,17.821 50.637,9.412 53.782,13.833 60.596,12.739 "/><path display="none" d="M63.407,141.753h0.014v0.015h-0.014v22.257h5.702v10.473h11.291v-10.473h22.851v10.473h11.291v-10.473h5.73  v-52.052H63.407V141.753L63.407,141.753z M115.558,114.668c1.736,0,2.611,0.848,2.611,2.527v23.33H65.481v-23.33  c0-1.68,0.875-2.527,2.611-2.527H115.558L115.558,114.668z M68.093,161.33c-1.736,0-2.611-0.847-2.611-2.526v-15.808h52.688v15.808  c0,1.68-0.875,2.526-2.611,2.526H68.093L68.093,161.33z"/><path display="none" d="M39.484,10.798l-4.798,10.695l-5.448-5.398l-5.947,5.599l13.944,13.794c0.101-0.199,0.2-0.398,0.3-0.6  l7.797-17.293l1.6,0.449l-8.746,19.393v11.596H53.18V10.798H39.484L39.484,10.798z"/><path display="none" d="M29.238,17.545v-1.6H0.101C0.051,16.146,0,16.345,0,16.595c0,0.351,0.051,0.65,0.15,0.95  c0.25,0.749,0.75,1.399,1.6,1.949c1.149,0.8,2.599,1.199,4.248,1.199s3.099-0.399,4.248-1.199c0.85-0.55,1.35-1.2,1.6-1.949H29.238  L29.238,17.545z"/><path display="none" d="M125.62,21.184c0,0.88,0.319,1.64,0.999,2.239c0.52,0.48,1.16,0.76,1.84,0.879h4.397l0.8,0.801l6.637-8.757  L126.14,4.311l-14.114,31.827h6.678l6.917-15.114C125.62,21.064,125.62,21.144,125.62,21.184L125.62,21.184z"/><path display="none" d="M122.342,38.097c-0.121-0.119-0.28-0.24-0.44-0.359H96.072c-0.12,0-0.199,0-0.279-0.041l-0.041-0.039  c-0.119-0.041-0.199-0.121-0.279-0.201L80.839,20.705c-0.76,3.279-0.399,6.598,0.999,9.955c1.68,3.879,4.318,6.678,7.957,8.396  c1.479,0.68,2.919,1.119,4.358,1.32c0,0.08,0,0.16,0,0.24v0.238c0,1,0.36,1.84,1.079,2.52c0.72,0.68,1.6,1,2.639,1h21.831  c1.04,0,1.919-0.32,2.64-1c0.719-0.68,1.079-1.52,1.079-2.52v-0.238C123.421,39.617,123.061,38.777,122.342,38.097L122.342,38.097z"/><path display="none" d="M98.392,29.781l-1.359,1.439v4.918h14.394V31.46l-4.198,0.799c0.04-0.16,0.12-0.32,0.16-0.479l-2.879-2.721  L98.392,29.781L98.392,29.781z M102.189,29.9c0.36,0,0.68,0.08,0.92,0.201c0.279,0.16,0.4,0.359,0.4,0.559  c0,0.201-0.121,0.4-0.4,0.52c-0.24,0.16-0.56,0.24-0.92,0.24c-0.359,0-0.68-0.08-0.959-0.24c-0.24-0.119-0.36-0.318-0.36-0.52  c0-0.199,0.12-0.398,0.36-0.559C101.51,29.98,101.83,29.9,102.189,29.9L102.189,29.9z M100.67,33.179c0.2-0.199,0.48-0.32,0.76-0.32  c0.28,0,0.521,0.121,0.721,0.32c0.199,0.199,0.319,0.48,0.319,0.76s-0.12,0.561-0.319,0.76c-0.2,0.199-0.44,0.32-0.721,0.32  c-0.279,0-0.56-0.121-0.76-0.32c-0.199-0.199-0.279-0.48-0.279-0.76S100.471,33.378,100.67,33.179L100.67,33.179z M106.708,33.699  c0.2-0.199,0.479-0.279,0.8-0.279c0.319,0,0.6,0.08,0.799,0.279c0.2,0.199,0.32,0.48,0.32,0.76s-0.12,0.52-0.32,0.721  c-0.199,0.199-0.479,0.318-0.799,0.318c-0.32,0-0.6-0.119-0.8-0.318c-0.2-0.201-0.32-0.441-0.32-0.721  S106.508,33.898,106.708,33.699L106.708,33.699z"/><path d="M125.159,37.646c0-0.239,0-0.477,0-0.714c0-4.358-1.584-8.082-4.674-11.173c-3.091-3.09-6.736-4.596-11.095-4.596  s-8.081,1.506-11.173,4.596c-3.09,3.091-4.596,6.814-4.596,11.173c0,0.237,0,0.475,0,0.714c0.159,4.041,1.664,7.447,4.596,10.38  c0.792,0.793,1.585,1.505,2.456,2.06c1.505,1.031,3.09,1.743,4.755,2.14c1.27,0.319,2.615,0.477,3.962,0.477  c2.774,0,5.23-0.635,7.448-1.824c0.395-0.238,0.792-0.554,1.188-0.792c0.872-0.554,1.665-1.267,2.458-2.06  C123.415,45.093,125.001,41.687,125.159,37.646L125.159,37.646z"/><path d="M95.841,73.542l-8.636-8.559l-9.431,8.875l22.108,21.87c0.158-0.316,0.318-0.631,0.477-0.951l12.361-27.416l2.535-0.081  l-13.866,30.745v19.177h23.771V56.584h-21.711L95.841,73.542L95.841,73.542z"/><polygon points="83.005,117.282 83.005,108.012 31.737,108.012 31.737,117.282 83.005,117.282 "/><polygon points="69.613,105.476 69.613,101.511 45.049,101.511 45.049,105.476 69.613,105.476 "/><path d="M41.087,67.28c0.396,1.189,1.189,2.22,2.536,3.09c1.822,1.27,4.12,1.901,6.734,1.901c2.615,0,4.913-0.632,6.735-1.901  c1.349-0.87,2.139-1.901,2.536-3.09h27.576v-2.536H41.008c-0.081,0.319-0.158,0.635-0.158,1.031  C40.85,66.33,40.927,66.806,41.087,67.28L41.087,67.28z"/><path d="M31.182,80.831c0,0.237,0,0.554,0,0.794c0,5.31,2.377,9.904,7.21,13.629c1.506,1.188,3.091,2.142,4.755,3.01  c0.712,0.32,1.505,0.637,2.297,0.951c0.712,0.237,1.348,0.478,2.06,0.716c-1.03-1.509-1.583-3.172-1.583-4.995  c0-2.852,1.267-5.308,3.883-7.366l0.079-0.08c0.317-0.238,0.634-0.477,1.03-0.713c-0.237,0.236-0.396,0.555-0.476,0.793  c-0.712,1.347-1.029,2.771-1.029,4.356c0,2.535,0.872,4.677,2.615,6.496c1.268,1.347,2.773,2.14,4.438,2.536  c0.078,0,0.238,0,0.396,0c-0.714-0.553-1.268-1.107-1.664-1.743c-1.029-1.347-1.506-2.772-1.506-4.357  c0-2.693,1.346-4.991,4.121-6.895c0.238-0.158,0.396-0.316,0.635-0.394c1.663-1.031,3.564-1.668,5.625-2.062  c-0.634,0.394-1.188,0.792-1.743,1.269c-0.237,0.236-0.476,0.555-0.715,0.793c-1.504,1.662-2.217,3.644-2.217,5.783  c0,2.218,0.792,4.199,2.298,5.862c0.237,0.237,0.396,0.397,0.634,0.636c0.159,0.08,0.317,0.238,0.396,0.395  c0.554-0.156,1.189-0.314,1.822-0.477c0.238-0.076,0.396-0.156,0.634-0.234c0.476-0.319,0.951-0.716,1.348-1.188  c0.316-0.32,0.633-0.636,0.87-1.032c0.952-1.427,1.427-3.09,1.427-4.911c0-0.793-0.078-1.507-0.238-2.22  c1.031,1.347,1.586,2.852,1.586,4.675c0,0.953-0.158,1.821-0.476,2.694c1.188-0.711,2.298-1.428,3.407-2.298  c2.456-1.901,4.279-3.963,5.468-6.18c0.078-0.158,0.078-0.318,0.158-0.396c0.158-0.396,0.317-0.715,0.476-1.108  c0.713-1.824,1.108-3.807,1.108-5.944c0-0.24,0-0.557,0-0.794H31.182L31.182,80.831z"/><path d="M39.027,77.898c-2.14,0.238-3.171-0.63-3.171-2.535c0.08-1.901,1.031-4.277,3.012-7.132  c-0.159,1.743,0.317,3.726,1.504,5.944C41.563,76.393,41.087,77.66,39.027,77.898L39.027,77.898z"/></svg>