<svg fill="#fff" width="120" height="120" xmlns="http://www.w3.org/2000/svg" xmlns:xlink="http://www.w3.org/1999/xlink" version="1.1" x="0px" y="0px" viewBox="0 0 50 62.5" enable-background="new 0 0 50 50" xml:space="preserve"><g><path d="M25,25C25,25,25,25,25,25L25,25L25,25z"/></g><g><g><path d="M29.9,26.8c0.1-0.4,0.3-0.8,0.4-1.2l0.4-1.3v-0.5c-1.7,1.4-3.6,2.3-5.7,2.3c-2.1,0-4-0.9-5.7-2.3v0.8c0,1-0.7,1.8-1.7,2    c-1.5,0.3-3.6,0.8-5.3,1.5c-0.6,0.3-1.3,0.4-1.9,0.6c-2.7,0.6-9.7,3.2-8.4,14.5c0,0-0.3,2-0.8,3.8c-0.3,1,0.4,2,1.5,2h6.1    c0,0,2.1-2.6-0.1-10.6c0,0,3.5,7.7,1.5,10.6l1.1-0.8C26.7,37,28.6,30.8,29.9,26.8z"/></g><g><path d="M48.9,47c-0.5-1.8-0.9-3.8-0.9-3.8c1.3-11.3-5.7-13.9-8.4-14.5c-0.4-0.1-0.8-0.2-1.3-0.3c2.2,7,0.8,16.9-1.5,20.6H40    c-2-2.9,1.5-10.6,1.5-10.6c-2.3,8-0.1,10.6-0.1,10.6h6.1C48.5,49,49.2,48,48.9,47z"/></g><g><path d="M13.3,12.9c0.3,0.4,0.5,0.9,0.4,1.3c-0.1,0.4-0.3,0.8-0.1,1.2c0.2,0.3,0.7,0.5,1.2,0.4c0.2-0.1,0.4-0.2,0.6-0.3    c1.5,5.1,5.2,9.6,9.6,9.6s8.1-4.5,9.6-9.6c0.2,0.1,0.4,0.3,0.6,0.3c0.4,0.1,1-0.1,1.2-0.4c0.2-0.4,0-0.8,0-1.2    c-0.1-0.5,0.1-0.9,0.4-1.3c0.2-0.3,0.5-0.5,0.7-0.7c0.3-0.4,0.4-0.8,0.2-1.2c-0.2-0.4-0.6-0.8-1.2-0.8c-0.4,0-0.8,0-1.3,0.2    C34.8,4.3,30.4,1,25,1c-5.4,0-9.8,3.3-10.2,9.3c-0.4-0.2-0.9-0.2-1.3-0.2c-0.5,0.1-1,0.4-1.2,0.8c-0.2,0.4-0.1,0.9,0.2,1.2    C12.8,12.5,13.1,12.7,13.3,12.9z M29.8,9.1c0,0.2-0.2,0.3-0.4,0.2c-2.9-0.8-5.9-0.8-8.8,0c-0.2,0-0.4-0.1-0.4-0.2    c-0.1-0.2,0.1-0.4,0.2-0.4c3-0.9,6.2-0.9,9.2,0C29.8,8.7,29.9,8.9,29.8,9.1z M30.2,7.9c-0.1,0.2-0.3,0.3-0.5,0.2    c-3.1-0.9-6.4-0.9-9.5,0c-0.2,0.1-0.4,0-0.5-0.2c-0.1-0.2,0.1-0.4,0.3-0.4c3.2-0.9,6.7-0.9,9.9,0C30.2,7.5,30.3,7.7,30.2,7.9z     M19.7,6.2c3.5-1,7.1-1,10.6,0c0.2,0.1,0.4,0.3,0.3,0.4c-0.1,0.2-0.3,0.3-0.5,0.2c-3.4-1-6.9-1-10.2,0c-0.2,0.1-0.4,0-0.5-0.2    C19.3,6.5,19.5,6.3,19.7,6.2z"/></g><g><path d="M37.2,27.9c-1.6-0.6-3.5-1-4.8-1.3c-0.5-0.1-0.9-0.4-1.2-0.7C29.8,30,29.1,36.5,11.8,49h2.4c0,0,12.2-4.4,16-15.5    C30,34.2,26.6,45.2,16.4,49h4c0,0,11.5-5.2,13.5-18.3c0,0-1.4,13.7-11.3,18.3h3.5c0,0,10.5-5.2,10.5-18.1    c0.1,1.6,0.2,13.8-8.3,18.1h7.4C38.1,46,39.8,35.1,37.2,27.9z"/></g></g></svg>